<?xml version="1.0" encoding="utf-8"?>
<!-- Generator: Adobe Illustrator 23.0.3, SVG Export Plug-In . SVG Version: 6.00 Build 0)  -->
<svg version="1.1" id="Layer_1" xmlns="http://www.w3.org/2000/svg" xmlns:xlink="http://www.w3.org/1999/xlink" x="0px" y="0px"
	 viewBox="0 0 1280 1024" style="enable-background:new 0 0 1280 1024;" xml:space="preserve">
<style type="text/css">
	.st0{fill:#B8C1C9;}
	.st1{fill:#131F2D;}
	.st2{fill:#FF7955;}
	.st3{fill:#EF6343;}
	.st4{fill:#D35C2B;}
	.st5{fill:#FFFFFF;}
	.st6{fill:#00A3FE;}
	.st7{fill:#016EB9;}
	.st8{fill:#364154;}
	.st9{fill:#A0462D;}
	.st10{fill:#B05638;}
	.st11{fill:#2C3A64;}
	.st12{fill:#657285;}
	.st13{fill:#FFC197;}
	.st14{fill:#D5D6DA;}
	.st15{fill:#2B478B;}
</style>
<g>
	<path class="st0" d="M1247.04,812.64H41.08l0,0c0-55.03,17.57-99.64,39.25-99.64h1127.46
		C1229.47,713,1247.04,757.61,1247.04,812.64L1247.04,812.64z"/>
	<g>
		<g>
			<g>
				<path class="st1" d="M358.01,182.4c0,0,11.64-24.49,39.77-9.91c28.13,14.57,0.74,70.14,15.5,83.86
					c14.76,13.72-5.35,22.71-2.35,32.55c3,9.84-5.56,21.03-25.25,19.72c-19.68-1.32-40.41-0.26-49.3-17.47
					c-8.89-17.22-6.87-55.11-3.43-60.44C336.38,225.39,358.01,182.4,358.01,182.4z"/>
				<path class="st2" d="M312.43,313.04l47.83-28.86c-0.26-0.11-1.23-1.55-4.81-11.89c-1.52-4.41-2.33-8.24-2.73-11.27
					c-0.04-0.3-0.08-0.6-0.11-0.89c-0.49-4.41-0.13-6.95-0.13-6.95L342,256.97l-19.38,7.02c0.23,4.91-0.46,8.37-1.51,10.74
					c-2.53,5.76-7.24,5.8-7.38,5.8L312.43,313.04z"/>
				<path class="st3" d="M321.12,274.73c18.73,1.59,29.27-10.62,31.6-13.71c0.34-0.45,0.52-0.7,0.52-0.7s-0.23-0.07-0.62-0.19
					c-1.52-0.45-5.66-1.69-10.61-3.17l-19.38,7.02C322.85,268.9,322.16,272.36,321.12,274.73z"/>
				<path class="st2" d="M320.18,268c0,0,41.61,4.57,42.46-23.56c0.85-28.13,7-41.01-21.79-43.51
					c-28.79-2.51-35.59,7.86-37.28,17.38C298.27,248.04,308.46,266.74,320.18,268z"/>
				<path class="st4" d="M397.78,172.49c0.58-1.3,0.99-2.15,0.99-2.15C398.34,170.95,398.02,171.68,397.78,172.49z"/>
				<path class="st1" d="M338.62,214.67c14.72-3.73,9.09,22.36,12.81,20.57c4.16-2,11.32-1.97,10.19,3.06
					c-1.13,5.03-2.76,6.82-3.61,9.96c-0.85,3.14,0.01,9.35,3.43,8.1c3.42-1.25,35.26-37.61,12.78-65.93
					c-22.48-28.32-89.52-10.87-68.41,18.75C309.52,214.38,328.13,217.32,338.62,214.67z"/>
				<path class="st2" d="M228.64,286.63c0,0,0.5-12.21-3.22-16.43c-3.72-4.21-8.68-4.9-10.15-1.27c-4.58,11.38,3.7,21.04,3.7,21.04
					L228.64,286.63z"/>
				<path class="st2" d="M322.74,283.31c0,0-2.46,37.75-57.31,60.44c-5.37,2.22-11.53,1.62-16.35-1.62
					c-8.32-5.58-21.21-18.66-30.1-52.14c-0.97-3.66,8.39-5.52,8.39-5.52c-0.7,0.48,18.05,21,27.76,29.49
					c1.76,1.53,4.9,1.01,6.65-0.54c4.52-4,12.37-10.74,16.53-13.23C284.39,296.56,318.33,273.5,322.74,283.31z"/>
				<path class="st2" d="M284.24,619.23l22,5.84c0,0,13.52-47.1,16.39-79.83c0.44-4.97,0.63-9.6,0.49-13.69
					c-0.64-18.73,39.15-96.8,11.95-114.54c-18.72-12.2-45.92-2.03-45.92-2.03s-3.79,99.23-3.79,117.86c0,2.54-0.02,5.98-0.05,10.04
					C285.08,568.66,284.24,619.23,284.24,619.23z"/>
				<path class="st2" d="M326.04,420.86c0,0,17.92,100.85,22.2,123.36c0.35,1.82,0.61,3.13,0.76,3.83
					c2.02,9.36,12.15,73.51,12.15,73.51l21.89-1.15c0,0,6.6-47.15,5.2-80.97c-0.35-8.28-1.17-15.76-2.69-21.56
					c-7.71-29.47,10.1-102.3-18.07-119.39C339.32,381.4,326.04,420.86,326.04,420.86z"/>
				<path class="st5" d="M322.74,251.65c0-1.74-3.81-3.27-6.5-3.27c-2.69,0-6.28,1.65-6.1,2.89c0.4,2.87,3.41,5.25,6.1,5.25
					C318.93,256.52,322.74,254.34,322.74,251.65z"/>
				<path class="st2" d="M382.19,288.28c0,0,31.47,62.79,39.18,70.5c7.71,7.71,34.9,32.54,44.32,39.54c0,0,28.9,8.26,28.26,11.66
					c-0.64,3.4-20.12,2.76-22.27,3.62c-2.14,0.86,4.28,6.21-1.07,6c-3.51-0.14-7.03-6.37-9.03-10.63l0,0
					c0,0-49.21-24.05-56.49-27.91c-7.28-3.85-29.12-31.26-32.97-42.82C368.27,326.67,382.19,288.28,382.19,288.28z"/>
				<path class="st6" d="M268.32,335.07c-5.86-14.5-2.38-29.28-2.38-29.28c20.37-22.99,33.15-25.14,37.46-25.07
					c14.3-2.67,40.77-0.81,55.22,0.53c-0.01-0.23-0.02-0.36-0.02-0.36s23.24,1.8,29.84,9.5c0,0,0.01,0.01,0.03,0.03
					c6.62,7.75,30.1,47.16,30.1,47.16s1.12,9.63-9.57,20.08c-3.82,3.73-9.15,7.57-16.58,11.11c-1.99,0.95-3.88,1.33-5.65,1.21v0
					l21.75,105.41c-8.08,13.2-24.91,21.81-44.16,27.11c-40.15,11.05-90.85,7.7-94.75,1.62c-4.01-25.35,1.84-98.34,9.95-153.62
					C274.04,345.94,270.51,340.53,268.32,335.07z"/>
				<path class="st6" d="M348.24,544.22c0.35,1.82,0.61,3.13,0.76,3.83c2.02,9.36,12.15,73.51,12.15,73.51h21.68
					c0,0,6.8-48.3,5.41-82.12C382.5,542.15,370.9,545.16,348.24,544.22z"/>
				<path class="st1" d="M329.65,638.78h54.79c0,0,1.05-8.91-0.21-16.53c-0.15-0.93-0.63-1.76-1.35-2.5
					c-3.21,1.09-7.92,1.86-13.16-0.03c-4.3-1.54-7.48-3.89-9.69-6.03c-0.57,0.55-11.89,11.34-17.12,11.34
					C337.53,625.03,329.33,627.61,329.65,638.78z"/>
				<path class="st6" d="M284.24,619.23l22,5.84c0,0,13.52-47.1,16.39-79.83c-9.06,0.65-24.8,1.14-37.32-2.36
					C285.08,568.66,284.24,619.23,284.24,619.23z"/>
				<path class="st1" d="M254.13,638.78h54.79c0,0,1.05-8.91-0.21-16.53c-0.15-0.93-0.63-1.76-1.35-2.5
					c-3.21,1.09-7.92,1.86-13.16-0.03c-4.3-1.54-7.48-3.89-9.69-6.03c-0.57,0.55-11.89,11.34-17.12,11.34
					C262.01,625.03,253.82,627.61,254.13,638.78z"/>
				<path class="st7" d="M364.37,502.5c19.25-5.3,36.08-13.91,44.16-27.11l-21.75-105.41C386.77,369.98,338.91,465.82,364.37,502.5z
					"/>
				<path class="st7" d="M388.44,290.4c0,0,4.31,54.81,20.56,67.27c10.69-10.45,9.57-20.08,9.57-20.08s-23.48-39.42-30.1-47.16
					C388.45,290.4,388.44,290.4,388.44,290.4z"/>
				<path class="st7" d="M268.32,335.07c2.23,5.53,5.82,11.02,11.48,15.62c1.39-4.87,4.08-15.94,0.59-17.93
					C275.89,330.2,268.32,335.07,268.32,335.07z"/>
			</g>
			<g>
				<g>
					<g>
						<path class="st8" d="M163.99,627.22c-0.28,2.28,11.94,3.03,12.28,0.27l40.48-319.14l6.81-53.69h-2.14l-7.34,47.6
							L163.99,627.22z"/>
					</g>
					<path class="st8" d="M214.08,302.26c0,0,1.34,2.09,2.67,6.09l6.81-53.69h-2.14L214.08,302.26z"/>
					<g>
						<path class="st1" d="M249.56,239.92c4.01-3.63,4.31-9.81,0.69-13.82c-3.63-4.01-9.81-4.31-13.82-0.69
							c-4.01,3.63-4.31,9.81-0.69,13.82C239.37,243.24,245.55,243.55,249.56,239.92z"/>
						<polygon class="st8" points="187.7,280 189.42,281.9 198.82,274.43 196.08,271.4 						"/>
						<polygon class="st1" points="234.06,227.28 212.61,248.76 205.75,255.61 204.39,256.98 191.16,270.22 199.19,279.1 
							214.08,267.68 215.61,266.5 223.32,260.6 247.46,242.09 						"/>
						<path class="st8" d="M233.33,227.36l13.98,15.44c0.4,0.44,1.08,0.47,1.52,0.08l0,0c0.44-0.4,0.47-1.08,0.08-1.52l-13.98-15.44
							c-0.4-0.44-1.08-0.47-1.52-0.08l0,0C232.96,226.24,232.93,226.92,233.33,227.36z"/>
						<polygon class="st8" points="204.39,256.98 191.16,270.22 199.19,279.1 214.08,267.68 						"/>
					</g>
					<path class="st8" d="M231.07,254.66c-0.26,0.2-3.62,12.86-19.3,14.8L231.07,254.66z"/>
				</g>
				<path class="st8" d="M142.31,638.84h53.65c-0.55-3.57-2.23-6.78-4.69-9.24c-3.01-3.01-7.16-4.87-11.73-4.87h-20.8
					C150.46,624.73,143.52,630.87,142.31,638.84z"/>
				<path class="st8" d="M161.83,638.84h34.14c-0.55-3.57-2.23-6.78-4.69-9.24c-3.01-3.01-7.16-4.87-11.73-4.87h-1.28
					C169.97,624.73,163.04,630.87,161.83,638.84z"/>
			</g>
		</g>
		<g>
			<path class="st1" d="M864.14,196.71c0,0-41.35-12.69-66.15,21.6c-24.8,34.29,15.49,72.83,20.88,83.11
				c5.39,10.28-9.42,29.47,8.2,41.76c17.62,12.29,9.2,21.78,22.16,26.88c12.96,5.11,19.14,3.6,36.84-11.7
				C903.78,343.06,886.71,198.85,864.14,196.71z"/>
			<path class="st3" d="M969.75,302.06c0,0,33.15,16.58,35.12,21.66c1.97,5.08-17.75,15.78-41.66,0.39
				C939.3,308.71,969.75,302.06,969.75,302.06z"/>
			<path class="st2" d="M930.43,317.51l-52.61-18.79c0.24-0.16,0.9-1.76,2.35-12.61c0.62-4.63,0.65-8.54,0.44-11.59
				c-0.02-0.31-0.04-0.6-0.07-0.89c-0.4-4.42-1.25-6.84-1.25-6.84l11.02,1.63l20.39,3.03c0.76,4.86,2.12,8.11,3.61,10.23
				c3.62,5.14,8.25,4.25,8.38,4.22L930.43,317.51z"/>
			<path class="st3" d="M914.31,281.68c-18.04,5.28-30.8-4.6-33.7-7.16c-0.43-0.37-0.65-0.59-0.65-0.59s0.21-0.11,0.57-0.3
				c1.4-0.74,5.21-2.78,9.77-5.21l20.39,3.03C911.45,276.31,912.81,279.56,914.31,281.68z"/>
			<path class="st2" d="M913.89,274.9c0,0-39.87,12.74-46.29-14.66c-6.42-27.4-15.01-38.8,12.71-46.97
				c27.72-8.17,36.44,0.64,39.99,9.63C931.4,250.99,925.13,271.34,913.89,274.9z"/>
			<path class="st4" d="M818.87,196.71c-0.83-1.16-1.4-1.91-1.4-1.91C818.01,195.3,818.47,195.95,818.87,196.71z"/>
			<path class="st1" d="M885.23,226.29c-15.17-0.73-4.47,23.72-8.47,22.71c-4.48-1.13-11.48,0.32-9.38,5.02
				c2.1,4.7,4.06,6.14,5.51,9.05c1.46,2.91,1.85,9.17-1.75,8.62c-3.6-0.55-42.03-29.86-25.62-62.08
				c16.41-32.22,85.58-28.44,70.77,4.79C913.69,220.24,896.03,226.81,885.23,226.29z"/>
			<path class="st2" d="M1015.69,617.13l-20.73,9.39c0,0-21.12-44.22-29.35-76.02c-1.26-4.82-2.21-9.36-2.75-13.42
				c-2.47-18.58-54.61-89-30.71-110.99c16.45-15.13,44.95-9.59,44.95-9.59s20.13,97.24,23.21,115.61c0.42,2.5,1.01,5.89,1.71,9.89
				C1006.51,567.39,1015.69,617.13,1015.69,617.13z"/>
			<path class="st2" d="M948.47,423.02c0,0-17.92,100.85-22.21,123.36c-0.35,1.82-0.61,3.13-0.76,3.83
				c-2.02,9.36-12.15,73.51-12.15,73.51l-21.89-1.15c0,0-6.6-47.15-5.2-80.97c0.35-8.28,1.17-15.76,2.68-21.56
				c7.71-29.47-10.1-102.3,18.07-119.39C935.2,383.56,948.47,423.02,948.47,423.02z"/>
			<path class="st6" d="M1004.69,474.5c-2.62,6.73-45.99,41.86-87.53,39.01c-12.3-0.85-23.94-3.11-33.52-7.39
				c-5.95-2.66-11.11-6.08-15.15-10.42l14.77-91.02c1.03-6.36-2.99-21.98-7.17-29.25c-0.52-0.91-1.04-1.69-1.56-2.3l-14.3-31.24
				l8.97-43.36c0,0,3.75-1.24,9.56-2.99c5.62,5.34,18.77,11.81,35.69,10.45c16.14-1.29,10-12.05,5.01-20.54
				c8.98-1.51,16.82-2.05,21.01-0.53c6.15,2.21,18.78,32.89,21.23,84.47C962.31,382.16,1003.66,450.52,1004.69,474.5z"/>
			<path class="st6" d="M926.27,546.38c-0.35,1.82-0.61,3.13-0.76,3.83c-2.02,9.36-12.15,73.51-12.15,73.51l-21.89-1.15
				c0,0-6.6-47.15-5.2-80.97C892.02,544.31,903.62,547.33,926.27,546.38z"/>
			<path class="st7" d="M883.64,506.12c-5.95-2.66-11.11-6.08-15.15-10.42l14.77-91.02c1.03-6.36-2.99-21.98-7.17-29.25
				c3.52-1.56,7.13-2.14,10.77-1.57C886.87,373.87,954.03,463.49,883.64,506.12z"/>
			<path class="st1" d="M944.59,639.78H889.8c0,0-1.05-8.91,0.21-16.53c0.15-0.93,0.63-1.76,1.35-2.5
				c3.21,1.09,7.92,1.85,13.16-0.03c4.3-1.54,7.48-3.89,9.69-6.03c0.57,0.55,11.89,11.34,17.12,11.34
				C936.71,626.03,944.91,628.61,944.59,639.78z"/>
			<path class="st6" d="M1015.69,617.13l-20.73,9.39c0,0-21.12-44.22-29.35-76.02c9.04-0.86,24.65-2.98,36.41-8.5
				C1006.51,567.39,1015.69,617.13,1015.69,617.13z"/>
			<path class="st1" d="M1048.42,630.29l-54.04,9.05c0,0-2.5-8.62-2.52-16.34c0-0.94,0.33-1.84,0.92-2.69
				c3.34,0.54,8.12,0.52,12.98-2.2c3.98-2.23,6.73-5.07,8.56-7.55c0.65,0.45,13.6,9.22,18.76,8.35
				C1038.38,618.03,1046.89,619.22,1048.42,630.29z"/>
			<path class="st2" d="M849.23,346.54c0,0,25.43,45.65,60.78,50.55l5.99-14.5c0,0-33.03-39.5-38.1-41.86
				C872.84,338.36,849.71,340.98,849.23,346.54z"/>
			<path class="st6" d="M869.2,298.54c0,0-43.98,13.97-18.22,56.65c0,0,23.43,8.74,42.77-5.33
				C910.05,337.98,869.2,298.54,869.2,298.54z"/>
			<path class="st7" d="M940.47,284.93c0,0,26.38,15.58,29.28,17.13c0,0,0.12,35.09-17.87,39.18
				C933.89,345.32,940.47,284.93,940.47,284.93z"/>
			<path class="st2" d="M910.01,397.08c0,0,30.43-17.26,42.31-34.09l-4.87-4.63c0,0-42.69,9.9-46.91,16.44
				C896.32,381.33,910.01,397.08,910.01,397.08z"/>
			<path class="st2" d="M960.12,308.77c0,0,40.83,6.36,44.75,14.96c3.93,8.6-9.23,16.77-35.27-2.86L960.12,308.77z"/>
			<g>
				<path class="st9" d="M920.14,258.72c0.43,2.14-0.95,4.23-3.09,4.66c-2.14,0.43-4.23-0.95-4.66-3.09
					c-0.43-2.14,0.95-4.23,3.09-4.66C917.62,255.2,919.7,256.58,920.14,258.72z"/>
				<g>
					<path class="st10" d="M1034.04,330.27c2.14,10.83,3.45,35.38-4.59,50.68l-0.01,0c-1.42,2.71-3.14,5.14-5.2,7.14
						c-19.04,18.5-45.93,7.3-58.77-14.91c0-0.01-0.01-0.01-0.01-0.01c-0.12-0.2-0.24-0.42-0.36-0.62c-1.73-3.08-3.19-6.38-4.33-9.82
						c-5.8-17.63-9-40.83-10.98-58.51c-1.69-15.08-4.96-26.17-6.24-30.32c-3.69-12.05-18.12-12.95-25.87-12.16
						c-0.05,0-0.1,0.01-0.15,0.02c-2.44,1.32-3.3-1.16-3.3-1.16c-0.28-1.38,0.65-2.72,2.04-2.93c2.87-0.44,7.83-1.01,13.19-0.75
						c15.21,0.73,21.2,7.45,23.54,12.95c2,4.69,6.82,14.73,10.93,30.34c4.49,17.05,6.37,26.56,15.92,44.29
						c4.79,8.88,8.48,10.81,10.61,8.72c1.82-1.78,2.5-6.48,1.76-12.29c-0.14-1.05-0.32-2.14-0.55-3.26
						C989.54,327.25,1032.57,322.86,1034.04,330.27z"/>
				</g>
				<path class="st9" d="M1030.02,364.31c-13.55,4.82-39.54-11.09-39.54-11.09s0,0,0-0.01c1.82-1.78,2.5-6.48,1.76-12.29
					C998.7,340.7,1039.07,361.09,1030.02,364.31z"/>
				<g>
					<path class="st10" d="M1037.75,316.38c12.55,14.21,13.74,33.65,2.67,43.43c-11.07,9.78-30.22,6.2-42.77-8.01
						c-12.55-14.21-13.74-33.65-2.67-43.43C1006.06,298.59,1025.21,302.18,1037.75,316.38z"/>
					<path class="st9" d="M1036.75,345.83c-0.01,0.04-0.03,0.08-0.05,0.12c-0.84,1.73-2,3.28-3.49,4.59
						c-7.7,6.8-21.01,4.31-29.73-5.57c-1.51-1.71-2.77-3.51-3.8-5.38c-0.73-1.32-1.34-2.67-1.82-4.03
						c-2.85-7.85-1.66-15.99,3.77-20.78c7.7-6.79,21-4.3,29.73,5.57C1038.36,328.3,1040.27,338.58,1036.75,345.83z"/>
					<path class="st9" d="M1036.75,345.83c-0.01,0.04-0.03,0.08-0.05,0.12c-0.84,1.73-2,3.28-3.49,4.59
						c-7.7,6.8-21.01,4.31-29.73-5.57c-1.51-1.71-2.77-3.51-3.8-5.38c-0.73-1.32-1.34-2.67-1.82-4.03c0.78-1.28,1.75-2.45,2.9-3.47
						c7.99-7.05,21.81-4.47,30.87,5.78C1033.82,340.37,1035.53,343.07,1036.75,345.83z"/>
				</g>
				<path class="st9" d="M965.11,372.55c-1.73-3.08-3.19-6.38-4.33-9.82c-5.8-17.63-9-40.83-10.98-58.51
					c-1.69-15.08-4.96-26.17-6.24-30.32c-3.69-12.05-18.12-12.95-25.87-12.16c6.66-0.82,22.09-1.68,27.72,6.86
					C952.51,279.36,959.84,361.78,965.11,372.55z"/>
				<path class="st9" d="M1029.45,380.95c-1.42,2.71-3.14,5.14-5.2,7.14c-19.04,18.5-45.93,7.3-58.77-14.91
					C970.77,380.8,1002.27,402.84,1029.45,380.95z"/>
			</g>
			<path class="st2" d="M947.71,356.45c0,0,8.66-22.48,14.25-16.11c4.27,4.87,4.9,16.73-7.87,22.18
				C941.31,367.97,947.71,356.45,947.71,356.45z"/>
			<path class="st2" d="M970.14,310.59c0,0-7.1-10.06-11.76-10.43c-4.66-0.37-7.27-0.22-8.58,4.06c-1.31,4.28,10.42,6.11,11.07,8.25
				c0.65,2.13-7.23,0.48-5.64,3.2c1.6,2.72,6.13,3,9.03,2.74c2.9-0.26,5.35,2.45,5.35,2.45L970.14,310.59z"/>
			<path class="st2" d="M945.47,358.76c0,0,3.01-3.29,1.89-4.78c-1.12-1.49,0.9-9.03,1.96-10.55c1.06-1.52,0.51,4.47,1.6,5.24
				C952.01,349.43,952.78,359.23,945.47,358.76z"/>
		</g>
		<g>
			<g>
				<g>
					<path class="st2" d="M743.06,252.79c0,0,42.01,70.8,46.51,88.78c4.5,17.98-25.51,13.49-33.95,0
						c-8.44-13.49-45.05-53.79-45.05-53.79L743.06,252.79z"/>
					<path class="st2" d="M637.4,273.39c10.9-15.28-9.61-33.26-23.42-20.56c-17.4,16-40.47,37.86-42.8,43.35
						c-3.78,8.92,21.68,26.98,57.73-12.42C632.31,280.04,635.11,276.59,637.4,273.39z"/>
					<path class="st11" d="M653.32,642.94h65.62c0,0,1.25-10.68-0.25-19.8c-0.18-1.11-0.76-2.11-1.62-2.99
						c-3.84,1.3-9.49,2.22-15.77-0.03c-5.15-1.85-8.95-4.66-11.61-7.22c-0.68,0.66-14.24,13.58-20.5,13.58
						C662.76,626.47,652.94,629.57,653.32,642.94z"/>
					<path class="st1" d="M562.79,642.94h65.62c0,0,1.25-10.68-0.25-19.8c-0.18-1.11-0.76-2.11-1.62-2.99
						c-3.84,1.3-9.49,2.22-15.77-0.03c-5.15-1.85-8.95-4.66-11.61-7.22c-0.68,0.66-14.24,13.58-20.5,13.58
						C572.23,626.47,562.42,629.57,562.79,642.94z"/>
					<path class="st8" d="M591.42,616.11c0,0,26.13,12.56,41.55,4.1c0,0,6.09-21.34,13.39-52.37c6.05-25.69,12.92-58.03,17.87-90.41
						c0.26-1.7,0.52-3.57,0.76-5.57c3.98-32.64,3.87-101.2-62.41-83.04L591.42,616.11z"/>
					<path class="st1" d="M646.35,567.84c6.05-25.69,12.92-58.03,17.87-90.41c0.26-1.7,0.52-3.57,0.76-5.57
						c-3.98-22.94-10.25-41.28-17.67-43.52C647.31,428.33,621.17,539.14,646.35,567.84z"/>
					<path class="st1" d="M651.79,642.94h65.62c0,0,1.25-10.68-0.25-19.8c-0.18-1.11-0.76-2.11-1.62-2.99
						c-3.84,1.3-9.49,2.22-15.77-0.03c-5.15-1.85-8.95-4.66-11.61-7.22c-0.68,0.66-14.24,13.58-20.5,13.58
						C661.23,626.47,651.41,629.57,651.79,642.94z"/>
					<path class="st8" d="M721.58,388.11c2.86,0.4-7.95,125.5-2.15,148.99c5.8,23.48,0.02,86.93,0.02,86.93s-22.23,6.4-46.28-2.72
						c0,0-7.48-76.14-13.85-97.95c-13.7-46.97-20.78-131.39-20.78-131.39L721.58,388.11z"/>
					<path class="st2" d="M657.78,234.66l32.57,21.25l9.43-23.16c0,0-3.51-8.73-4.06-22.49c-0.23-5.78,0.06-12.46,1.37-19.74
						l-29.58,11.39c0,0,0.39,2.67,0.44,6.54c0.04,4.19-0.34,9.79-2.08,14.96C664.38,227.86,661.89,231.99,657.78,234.66z"/>
					<path class="st6" d="M598.61,380.59L619,295.61c-16.33-7.71-22.16-32.08-22.16-32.08l32.26-24.99c3.4-2.63,7.3-4.53,11.48-5.56
						c4.82-1.19,12.65-2.48,22.06-3.03c-0.68,4.94,0.21,9.62,8.78,11.67c11.4,2.74,22.57-4.06,28.37-8.86
						c11.07,2.8,22.8,7.38,35.24,14.52l0,0c0,0,1.95,0.89,5.02,3c1.05,0.65,3.1,2.28,3.1,2.28c7.04,5.52,17.26,15.89,24.9,33.45
						c0,0-4.29,22.65-39.08,28.51l0,0l-0.11,0.47l-0.95,4.14l-5.25,22.92l4.67,64.25c0.05,0.56,0.04,1.12-0.02,1.66
						c-0.45,4.21-3.73,7.7-8.07,8.27c0,0-1,0.06-2.81,0.12c-4.29,0.15-14.99,0.42-28.69,0.08c-13.15-0.32-29.06-1.2-44.71-3.28
						c-14.51-1.93-28.79-4.89-40.41-9.41C594.25,400.49,596.95,389.43,598.61,380.59z"/>
					<path class="st3" d="M665.88,223.42c16,1.26,29.85-13.16,29.85-13.16l-27.77-1.81C667.99,212.65,667.62,218.25,665.88,223.42z"
						/>
					<path class="st2" d="M661.29,204.53c0,0,27.42,18.54,46.24-1.84c20.31-21.99,14.58-45.2,4.77-50.06
						c-19.57-9.7-34.18-6.05-40.66,0.94C665.16,160.56,646.11,194.45,661.29,204.53z"/>
					<path class="st7" d="M643.02,413.15c15.65,2.08,31.56,2.96,44.71,3.28c13.7,0.33,24.39,0.06,28.69-0.08
						c1.82-0.06,2.81-0.12,2.81-0.12c4.34-0.57,7.62-4.07,8.07-8.27c0.06-0.54,0.06-1.1,0.02-1.66l-4.67-64.25l5.25-22.92l0.95-4.14
						c-0.07-0.31-0.11-0.47-0.11-0.47S651.88,375.01,643.02,413.15z"/>
					<g>
						<path class="st1" d="M699.2,209.21c0,0,7.18-9.16,8.7-14.86c0,0,11.4-7.29,7.68-11.39c-3.72-4.09-8.28,0.99-8.93-0.55
							c-0.64-1.54,4.62-21.86-1.18-23.19c-5.8-1.33-28.67-2.15-34.99-13.12c-6.32-10.97,26.29-33.77,59.37-8.99
							C762.93,161.91,740.87,200.61,699.2,209.21z"/>
						<path class="st1" d="M742.53,159.76c0,0,3.44-4.44,2.89-8.66c0,0-1.82,4.91-4.53,6.43
							C738.18,159.06,742.53,159.76,742.53,159.76z"/>
						<path class="st1" d="M742.98,155.98c0,0,4.78,1.09,5.72,5.39c0,0-2.47-3.32-6.56-2.15L742.98,155.98z"/>
					</g>
					<path class="st2" d="M593.6,307.4c0,0-27.35,11.38-70.17,0.69l-9-11.85c0,0,48.6-7.01,66.58-8.45
						C599.01,286.34,593.6,307.4,593.6,307.4z"/>
					<g>
						<path class="st10" d="M653.14,307.06c2.6,1.24,5.03,2.7,7.28,4.33l0.01-0.01c17.78,11.72,36.5,15.01,46.15,15.93
							c8.44-0.04,17.04,1.78,25.2,5.68c28.43,13.59,40.67,47.22,27.34,75.13c-13.33,27.91-47.19,39.51-75.63,25.93
							c-9.82-4.69-17.71-11.78-23.28-20.19c-10.6-13.16-24.84-18.51-32.64-20.56c-1.88-0.27-3.76-0.66-5.63-1.17
							c-0.06-0.01-0.09-0.01-0.09-0.01l0.01-0.01c-2.68-0.73-5.34-1.7-7.95-2.95c-23.1-11.04-33.04-38.36-22.21-61.03
							C602.54,305.45,630.05,296.02,653.14,307.06z"/>
						<path class="st1" d="M497.56,290.5l154,73.59c3.57,1.7,7.88,0.18,9.59-3.39l0,0c1.7-3.57,0.18-7.88-3.39-9.59l-154-73.59
							c-3.57-1.71-7.88-0.18-9.59,3.39l0,0C492.47,284.48,494,288.8,497.56,290.5z"/>
						<path class="st1" d="M709.07,401.02l0.23,0.11c1.82,0.87,4.03,0.09,4.9-1.73l10.38-21.73c0.87-1.82,0.09-4.03-1.73-4.9
							l-0.23-0.11c-1.82-0.87-4.03-0.09-4.9,1.73l-10.38,21.73C706.47,397.95,707.25,400.15,709.07,401.02z"/>
						<path class="st1" d="M705.6,381.95c3.36-7.03-0.03-15.64-7.57-19.24s-16.37-0.83-19.73,6.2c-3.36,7.03,0.03,15.64,7.57,19.24
							C693.42,391.75,702.25,388.97,705.6,381.95z"/>
						<path class="st1" d="M487.53,289.07l6.4,3.06c3.8,1.82,8.4,0.19,10.22-3.61l2.4-5.03c1.82-3.8,0.19-8.4-3.61-10.22l-6.4-3.06
							c-3.8-1.82-8.4-0.19-10.22,3.61l-2.4,5.03C482.1,282.66,483.72,287.26,487.53,289.07z"/>
					</g>
					<path class="st2" d="M703.81,377.98c0.8-1.65-5.85-0.59-6.74-2.8c-0.89-2.21,20.5-0.93,20.5-0.93l39.88-38.25
						c0,0,22.28,3.45,30.63,14.36c0,0-52.13,31.46-66.86,33.17c0,0-7.28,3.48-12.74,5.41c-5.46,1.93-16.86,3.69-17.48-0.83
						C690.37,383.59,703.01,379.63,703.81,377.98z"/>
				</g>
			</g>
			<path class="st2" d="M523.44,308.09c0,0-19.34-5.95-12.65-17.72C514.02,286.3,530.87,296.7,523.44,308.09z"/>
		</g>
	</g>
	<rect x="76.8" y="665.77" class="st12" width="1134.11" height="47.23"/>
	<path class="st0" d="M1227.86,674H60.25c-4.04,0-7.32-8.32-7.32-18.58l0,0c0-10.26,3.28-18.58,7.32-18.58h1167.61
		c4.04,0,7.32,8.32,7.32,18.58l0,0C1235.18,665.68,1231.91,674,1227.86,674z"/>
	<g>
		<g>
			<g>
				<g>
					<path class="st3" d="M213.44,645.08l-11.19,31.27c0,0-6.89,0.39-8.2,7.9c-1.31,7.51-1.93,48.99-1.93,48.99l-30.37-11.86
						c0.55-1.31,6.65-47.97,5.72-55.06c-0.92-7.09-11.21-18.88-2.24-33.49c4.88-7.94,4.52-17.66,3.19-24.84
						c-0.49-2.63-1.11-4.93-1.65-6.68c-0.28-0.92-0.04-1.81,0.51-2.45c0.6-0.69,1.54-1.06,2.55-0.82c2.58,0.65,5.83,2.25,8.41,6.03
						c1.88,2.75,2.31,7.44,3.46,12.09c4.62-4.55,15.56-4.31,20.49-2.65C210.6,616.37,213.44,645.08,213.44,645.08z"/>
					<path class="st13" d="M169.29,607.64l-0.88,0.37c-0.49-2.63-3.1-7.74-3.64-9.49c-0.28-0.92,1.56-0.77,2.29-0.17
						c0.45,0.23,1.05,1.13,1.31,1.6c0.75,1.36,1.69,3.21,2.21,4.85C170.94,605.95,170.4,607.17,169.29,607.64z"/>
				</g>
				<g>
					<g>
						<path class="st1" d="M204.11,681.97l-0.92,0.27c-3,0.89-5.86,0.13-6.35-1.68l-30.8-112.51l6.76-2.01l35.63,111.15
							C209,678.94,207.06,681.1,204.11,681.97z"/>
					</g>
					<path class="st1" d="M243.5,548L96.64,591.61c-4.14,1.23-8.54-1.15-9.77-5.29L46.62,450.76c-1.23-4.14,1.15-8.54,5.29-9.77
						l146.86-43.61c4.14-1.23,8.54,1.15,9.77,5.29l40.25,135.56C250.03,542.38,247.64,546.77,243.5,548z"/>
					<path class="st14" d="M214.78,548.78l-93.65,27.81c-14.56,4.32-30.01-4.05-34.34-18.61l-24.77-83.42
						c-4.32-14.56,4.05-30.01,18.61-34.34l93.65-27.81c14.56-4.32,30.01,4.05,34.34,18.61l24.77,83.42
						C237.72,529,229.34,544.45,214.78,548.78z"/>
				</g>
				<g>
					<path class="st2" d="M204.23,615.31l-22.56,11.14c-1.89,1-3.59,0.67-4.59-1.21l-1.86-3.51c-1-1.88-0.27-4.24,1.61-5.24
						l17.75-10.55c2.32-1.34,5.38-0.51,6.89,1.24C201.48,607.18,208,613.52,204.23,615.31z"/>
					<path class="st2" d="M210.63,625.79l-22.89,12.14c-2.98,1.58-6.7,0.43-8.28-2.54l0,0c-1.58-2.98-0.43-6.7,2.54-8.28
						l22.89-12.14c2.98-1.58,5.7-2.55,8.28,2.54l0,0C215.94,621.51,213.61,624.21,210.63,625.79z"/>
					<path class="st2" d="M213.42,635.53l-18.57,8.8c-2.57,1.36-5.25,1.13-6.61-1.44l0,0c-1.36-2.57-0.37-5.79,2.2-7.15l18.04-9.56
						c2.57-1.36,5.1-2.84,7.15,2.2l0,0C217.31,631.83,216.01,634.22,213.42,635.53z"/>
					<path class="st2" d="M216.63,643.93l-10.57,5.61c-2.22,1.18-4.99,0.32-6.17-1.89l0,0c-1.18-2.22-0.32-4.99,1.89-6.17
						l10.57-5.61c2.22-1.17,4.99-0.32,6.17,1.89l0,0C219.7,639.97,218.85,642.75,216.63,643.93z"/>
					<path class="st13" d="M175.68,619.46c1.3-0.86,3.07-1.94,4.67-2.6c1.11-0.45,2.37-0.01,2.93,1.05l1.59,3.04
						c0.55,1.06,0.16,2.36-0.89,2.93c-1.29,0.69-3.09,1.59-4.93,2.26c-1.29,0.47-2.72-0.12-3.32-1.35l-0.96-1.95
						C174.18,621.65,174.57,620.2,175.68,619.46z"/>
					<path class="st13" d="M179.36,631.44c1.29-0.86,3.04-1.92,4.62-2.57c1.1-0.45,2.35-0.01,2.89,1.04l1.57,3.01
						c0.54,1.04,0.16,2.34-0.88,2.9c-1.28,0.69-3.06,1.58-4.88,2.24c-1.27,0.46-2.69-0.12-3.28-1.33l-0.95-1.94
						C177.87,633.6,178.26,632.17,179.36,631.44z"/>
					<path class="st13" d="M187.71,639.24c1.09-0.73,2.58-1.63,3.93-2.18c0.93-0.38,2-0.01,2.46,0.89l1.34,2.56
						c0.46,0.89,0.13,1.99-0.75,2.46c-1.08,0.58-2.6,1.34-4.15,1.9c-1.08,0.4-2.29-0.1-2.79-1.13l-0.81-1.65
						C186.45,641.08,186.77,639.86,187.71,639.24z"/>
					<path class="st13" d="M199.47,644.81c0.95-0.63,2.24-1.42,3.41-1.9c0.81-0.33,1.73-0.01,2.14,0.77l1.16,2.22
						c0.4,0.77,0.12,1.72-0.65,2.14c-0.94,0.51-2.26,1.16-3.6,1.65c-0.94,0.34-1.98-0.09-2.42-0.98l-0.7-1.43
						C198.38,646.4,198.66,645.34,199.47,644.81z"/>
				</g>
				<path class="st6" d="M208.71,807.8H147.2c2.75-34.83,16.69-128.33,16.69-128.33s1.11,0.29,2.93,0.87
					c6.28,1.99,20.93,7.34,26.35,15.38c0.56,0.83,1.03,1.68,1.37,2.57C194.53,698.29,209.86,778.6,208.71,807.8z"/>
			</g>
			<g>
				<path class="st1" d="M101.75,458.78c-0.96-0.82-2.7-0.85-5.22-0.08c-2.61,0.79-6,2-10.17,3.62c-4.17,1.62-7.14,3.06-8.89,4.31
					c-3.45,2.38-4.74,5.04-3.85,7.97c1.24,4.07,4.3,5.36,9.18,3.88l8.06-2.45l18.55,61.04l-9.52,2.9c-5.45,1.66-7.46,4.85-6.02,9.57
					c0.69,2.28,2.03,3.81,3.99,4.59c1.97,0.78,4.14,0.81,6.5,0.09l33.45-10.17c5.37-1.63,7.32-4.89,5.83-9.77
					c-1.41-4.64-4.8-6.15-10.17-4.51l-8.3,2.52l-20.08-66.04C103.82,462.09,102.71,459.6,101.75,458.78z"/>
				<path class="st1" d="M194.83,444.29c-7.09-6.98-15.21-9.9-24.35-8.74c-1.97,0.25-3.98,0.69-6.05,1.31
					c-11.64,3.54-18.68,11.24-21.12,23.09c-1.89,9.29-0.92,20.24,2.92,32.85c3.83,12.62,9.17,22.28,16.02,29
					c8.63,8.5,18.72,10.98,30.27,7.47c11.55-3.51,18.56-11.2,21-23.05c1.94-9.39,1-20.39-2.84-33.01c-0.25-0.82-0.51-1.63-0.77-2.43
					c0,0,0,0,0,0C206.16,459.35,201.13,450.53,194.83,444.29z M194.8,477.98c2.46,8.07,3.59,15.03,3.41,20.88
					c-0.21,8.97-3.49,14.42-9.83,16.35c-10.99,3.34-19.75-5.75-26.3-27.28c-2.43-7.99-3.53-14.96-3.29-20.91
					c0.26-8.81,3.6-14.19,10.03-16.14c6.27-1.9,12.01,0.76,17.24,7.99C189.48,463.69,192.4,470.07,194.8,477.98z"/>
			</g>
		</g>
		<g>
			<g>
				<path class="st3" d="M1039.13,664.13l9.3,29.93c0,0,6.48,0.64,7.42,7.77c0.94,7.14-7.18,49.36-7.18,49.36l40.2-6.02
					c-0.47-1.26-8.41-52.52-7.24-59.17c1.15-6.65,11.33-17.35,3.46-31.48c-4.28-7.68-3.55-16.83-2.02-23.55
					c0.57-2.46,1.24-4.6,1.83-6.23c0.3-0.85,0.11-1.7-0.38-2.33c-0.53-0.68-1.41-1.07-2.37-0.87c-2.46,0.51-5.59,1.88-8.17,5.34
					c-1.89,2.51-2.47,6.92-3.74,11.26c-4.17-4.47-14.5-4.69-19.21-3.32C1042.95,637.17,1039.13,664.13,1039.13,664.13z"/>
				<path class="st13" d="M1082.25,630.6l0.81,0.38c0.57-2.46,3.23-7.17,3.82-8.8c0.3-0.85-1.44-0.78-2.15-0.25
					c-0.44,0.2-1.04,1.02-1.3,1.46c-0.76,1.25-1.72,2.95-2.27,4.49C1080.76,628.93,1081.22,630.11,1082.25,630.6z"/>
			</g>
			<g>
				<path class="st1" d="M1039.77,714.35l0.9,0.32c2.95,1.04,5.84,0.43,6.43-1.36l36.46-110.81l-6.65-2.35l-41.22,109.2
					C1035.04,711.08,1036.88,713.33,1039.77,714.35z"/>
			</g>
			<path class="st1" d="M1007.22,578.56l144.46,51c4.08,1.44,8.58-0.72,10.02-4.79l47.07-133.35c1.44-4.07-0.72-8.58-4.79-10.02
				l-144.46-51c-4.08-1.44-8.58,0.72-10.02,4.79l-47.07,133.35C1000.99,572.61,1003.15,577.12,1007.22,578.56z"/>
			<path class="st14" d="M1035.87,580.79l92.12,32.52c14.32,5.06,30.18-2.53,35.24-16.85l28.97-82.06
				c5.06-14.32-2.53-30.18-16.85-35.24l-92.12-32.52c-14.32-5.06-30.18,2.53-35.23,16.85l-28.97,82.05
				C1013.97,559.88,1021.55,575.73,1035.87,580.79z"/>
			<path class="st1" d="M1089.45,476.57c-0.31-1.23-1.71-2.26-4.21-3.09c-2.58-0.87-6.05-1.84-10.39-2.94
				c-4.34-1.09-7.59-1.64-9.74-1.64c-4.2-0.06-6.78,1.36-7.75,4.27c-1.35,4.03,0.4,6.86,5.24,8.48l7.99,2.67l-20.24,60.5l-9.44-3.15
				c-5.41-1.81-8.89-0.37-10.45,4.31c-0.76,2.26-0.56,4.28,0.6,6.05c1.16,1.78,2.9,3.06,5.24,3.84l33.16,11.09
				c5.32,1.78,8.8,0.25,10.41-4.59c1.54-4.6-0.35-7.79-5.68-9.57l-8.23-2.75l21.89-65.46
				C1089.23,480.46,1089.76,477.8,1089.45,476.57z"/>
			<path class="st1" d="M1173.72,518.68c-1.74-9.8-6.67-16.88-14.78-21.23c-1.75-0.94-3.64-1.75-5.69-2.43
				c-11.54-3.86-21.74-1.66-30.59,6.59c-6.92,6.48-12.47,15.97-16.65,28.47c-4.19,12.5-5.43,23.48-3.75,32.92
				c2.11,11.92,8.9,19.8,20.35,23.62c11.45,3.83,21.61,1.62,30.47-6.63c7.02-6.53,12.63-16.04,16.81-28.55
				c0.27-0.81,0.53-1.63,0.78-2.43c0,0,0,0,0,0C1174.23,537.51,1175.24,527.41,1173.72,518.68z M1154.18,546.12
				c-2.67,8-5.78,14.33-9.31,19c-5.37,7.19-11.19,9.73-17.48,7.63c-10.89-3.64-12.77-16.13-5.63-37.47
				c2.65-7.92,5.79-14.24,9.43-18.95c5.31-7.03,11.15-9.48,17.52-7.35c6.21,2.08,9.35,7.58,9.42,16.5
				C1158.12,531.39,1156.81,538.28,1154.18,546.12z"/>
			<g>
				<path class="st2" d="M1049,636.43l20.83,11.4c1.74,1.02,3.36,0.78,4.37-0.96l1.89-3.23c1.02-1.74,0.43-3.99-1.31-5.01
					l-16.31-10.65c-2.13-1.36-5.05-0.7-6.55,0.89C1051.92,628.87,1045.52,634.59,1049,636.43z"/>
				<path class="st2" d="M1042.55,646.05l21.1,12.36c2.74,1.61,6.3,0.68,7.91-2.07l0,0c1.61-2.74,0.68-6.3-2.06-7.91l-21.1-12.36
					c-2.74-1.61-5.27-2.63-7.91,2.07l0,0C1037.72,641.8,1039.8,644.45,1042.55,646.05z"/>
				<path class="st2" d="M1039.53,655.13l17.16,9.04c2.37,1.39,4.9,1.28,6.29-1.09l0,0c1.39-2.37,0.59-5.44-1.78-6.83l-16.62-9.74
					c-2.37-1.39-4.69-2.88-6.83,1.78l0,0C1036.01,651.47,1037.14,653.79,1039.53,655.13z"/>
				<path class="st2" d="M1036.17,662.91l9.74,5.71c2.04,1.2,4.69,0.5,5.89-1.54l0,0c1.2-2.04,0.5-4.69-1.54-5.89l-9.74-5.71
					c-2.04-1.2-4.69-0.5-5.89,1.54l0,0C1033.43,659.06,1034.12,661.71,1036.17,662.91z"/>
				<path class="st13" d="M1075.75,641.49c-1.19-0.87-2.81-1.96-4.3-2.63c-1.03-0.47-2.24-0.1-2.8,0.87l-1.62,2.81
					c-0.56,0.97-0.25,2.22,0.72,2.79c1.19,0.71,2.85,1.62,4.55,2.33c1.19,0.49,2.57,0,3.18-1.14l0.98-1.81
					C1077.08,643.61,1076.77,642.23,1075.75,641.49z"/>
				<path class="st13" d="M1071.8,652.63c-1.18-0.86-2.79-1.93-4.25-2.61c-1.01-0.47-2.21-0.1-2.77,0.87l-1.6,2.78
					c-0.56,0.96-0.24,2.2,0.71,2.77c1.17,0.7,2.82,1.61,4.51,2.3c1.18,0.49,2.54,0,3.15-1.13l0.97-1.79
					C1073.11,654.73,1072.81,653.36,1071.8,652.63z"/>
				<path class="st13" d="M1063.62,659.65c-1-0.73-2.37-1.65-3.62-2.22c-0.86-0.4-1.88-0.09-2.36,0.74l-1.36,2.36
					c-0.47,0.82-0.21,1.87,0.61,2.35c1,0.59,2.4,1.37,3.83,1.96c1,0.41,2.16,0,2.68-0.96l0.83-1.52
					C1064.73,661.44,1064.47,660.28,1063.62,659.65z"/>
				<path class="st13" d="M1052.3,664.43c-0.87-0.63-2.05-1.43-3.14-1.92c-0.75-0.34-1.63-0.07-2.04,0.64l-1.18,2.05
					c-0.41,0.71-0.18,1.62,0.53,2.04c0.87,0.51,2.08,1.19,3.32,1.7c0.87,0.36,1.87,0,2.32-0.83l0.72-1.32
					C1053.27,665.97,1053.05,664.97,1052.3,664.43z"/>
			</g>
			<path class="st10" d="M1097.66,807.8h-57.05c0.51-9.06,1.88-20.49,3.59-32.24c0.71-4.9,1.47-9.85,2.27-14.7
				c0.17-1.06,0.34-2.11,0.51-3.15c0.2-1.17,0.39-2.34,0.59-3.5c0.19-1.11,0.38-2.22,0.57-3.32c0.4-2.32,0.8-4.59,1.18-6.78
				c0.23-0.02,0.46-0.04,0.7-0.06c7.75-0.75,19.4-2.34,25.79-5.48c4.28-2.11,8.09-3.96,11.13-5.13c0.73-0.28,1.42-0.53,2.06-0.72
				c0.75,5.86,1.54,12.1,2.33,18.49C1093.78,771.08,1096.27,792.41,1097.66,807.8z"/>
			<path class="st9" d="M1091.32,751.2c0,0-42.13,13.89-47.13,24.36c0.71-4.9,1.47-9.85,2.27-14.7c0.18-1.06,0.34-2.11,0.51-3.15
				c1.67-1.49,3.73-2.51,6.24-2.76L1091.32,751.2z"/>
			<path class="st10" d="M1091.32,751.2c-11.12,4.46-34.77,10.36-44.86,9.66c-1.31-0.09-2.39-0.29-3.19-0.63c0,0-2.2-1.52-1.53-3.9
				c0.07-0.24,0.17-0.5,0.31-0.77c0.9-1.76-0.97-5.12-1.45-7.69c-0.29-1.56-0.07-2.82,1.6-3.25c0,0,2.89-0.13,7.09-0.51
				c7.74-0.72,19.9-2.3,26.49-5.54c5.32-2.61,9.9-4.83,13.19-5.85c2.99-0.93,4.9-0.86,5.28,0.8c0.8,3.49,1.05,10.26,2.98,13.81
				C1097.71,748.17,1095.32,749.59,1091.32,751.2z"/>
			<path class="st9" d="M1054.85,752.41c-1.24,0.27-11.5,2.58-13.11,3.91c0.07-0.24,0.17-0.5,0.31-0.77
				c0.9-1.76-0.97-5.12-1.45-7.69c0.79,0.7,4.69,3.73,12.32,3.14C1061.53,750.35,1056.21,752.12,1054.85,752.41z"/>
		</g>
		<g>
			<g>
				<path class="st3" d="M891.38,788.95l-19.84,18.84h-3.86c-2.5-5.82-8.69-20.18-13.36-30.23c-2.11-4.54-3.91-8.21-4.91-9.81
					c-0.57-0.91-1.19-1.64-1.84-2.22l0-0.01c-3.74-3.37-8.27-1.81-8.27-1.81l-3.82-4.26l-16.92-18.87l-0.44-0.5
					c0,0-1.07-3.58-2.09-8.39c-0.01-0.04-0.02-0.09-0.03-0.14c-0.62-2.9-1.21-6.22-1.55-9.48c-0.02-0.21-0.04-0.42-0.06-0.63
					c-0.4-4.27-0.33-8.36,0.77-11.07c0,0,0-0.01,0-0.01c0.38-0.94,0.89-1.71,1.54-2.27c2.31-2,6.81-4.33,11.27-5.29
					c2.81-0.61,5.6-0.67,7.81,0.24c-0.11-0.74-0.23-1.47-0.37-2.2c-0.66-3.63-1.47-6.99-0.97-9.57v-0.01
					c0.01-0.06,0.02-0.11,0.03-0.17c0.91-4.27,3.21-6.86,5.26-8.37c0.71-0.52,1.56-0.59,2.29-0.3h0c0.09,0.03,0.17,0.06,0.25,0.11
					c0.71,0.37,1.25,1.07,1.33,1.98c0.15,1.7,0.42,3.89,0.91,6.32c0.01,0.06,0.02,0.13,0.03,0.18c1.42,6.84,4.61,15.56,11.8,20.83
					c13.21,9.68,8.36,23.83,10.1,30.44c0.5,1.91,2.71,6.52,5.63,12.15C879.25,768.3,890.7,788.27,891.38,788.95z"/>
				<path class="st15" d="M843.65,691.03l0.91,0.01c-0.51-2.51-0.05-7.96-0.2-9.71c-0.08-0.91-1.66-0.11-2.09,0.68
					c-0.32,0.37-0.52,1.38-0.58,1.89c-0.17,1.47-0.34,3.45-0.2,5.09C841.57,690.13,842.5,691.02,843.65,691.03z"/>
			</g>
			<path class="st6" d="M906.53,807.8h-46.59c-3.56-15.76-5.91-27.45-5.91-27.45c-0.02-0.91,0.08-1.84,0.28-2.77
				c1.9-9.07,12.92-19.09,17.76-23.12c1.4-1.16,2.28-1.82,2.28-1.82S890.33,779.56,906.53,807.8z"/>
			<g>
				<path class="st1" d="M845.19,790.26l0.94-0.15c3.09-0.48,5.35-2.39,5.02-4.24L830.84,671l-6.97,1.08l15.36,115.7
					C839.48,789.61,842.16,790.73,845.19,790.26z"/>
			</g>
			<path class="st1" d="M752.26,686.03l151.39-23.43c4.27-0.66,7.22-4.7,6.56-8.97l-21.63-139.75c-0.66-4.27-4.7-7.22-8.96-6.56
				l-151.39,23.43c-4.27,0.66-7.22,4.7-6.56,8.97l21.63,139.75C743.96,683.74,747.99,686.69,752.26,686.03z"/>
			<path class="st14" d="M778.55,674.44l96.54-14.94c15.01-2.32,25.39-16.51,23.07-31.52l-13.31-86
				c-2.32-15.01-16.51-25.39-31.52-23.07l-96.54,14.94c-15.01,2.32-25.39,16.51-23.07,31.52l13.31,85.99
				C749.36,666.38,763.54,676.76,778.55,674.44z"/>
			<path class="st1" d="M847.32,576.17c-1.08-9.81-4.44-17.44-10.1-22.89c-6.12-5.83-14-8.21-23.64-7.15
				c-9.13,1.01-16.34,4.9-21.62,11.69c-5.29,6.79-7.42,14.75-6.42,23.88c0.87,7.95,3.82,14.47,8.83,19.57
				c5.49,5.56,12.08,7.91,19.78,7.06c4.74-0.52,8.67-1.72,11.8-3.61l0.13-0.01c-3.27,6.86-7.93,13.88-13.98,21.05
				c-2.49,3.01-4.11,5.04-4.85,6.06c-1.17,1.75-1.67,3.39-1.51,4.91c0.23,2.03,1.09,3.73,2.62,5.1c1.52,1.37,3.29,1.95,5.32,1.72
				c6.59-0.73,15.17-10.66,25.73-29.79c3.28-5.92,5.62-11.87,7.02-17.85C847.82,589.94,848.12,583.36,847.32,576.17z M827.85,588.72
				c-2.35,3.17-5.76,5-10.24,5.49c-4.57,0.5-8.22-0.72-10.93-3.67c-2.43-2.64-3.91-6.33-4.43-11.07c-0.5-4.57,0.33-8.62,2.51-12.15
				c2.18-3.53,5.5-5.55,9.99-6.04c4.65-0.51,8.44,0.91,11.38,4.26c2.46,2.9,3.96,6.8,4.5,11.7
				C831.12,581.73,830.19,585.56,827.85,588.72z"/>
			<g>
				<path class="st2" d="M815.5,710.44l23.98,1.71c2.03,0.2,3.42-0.7,3.62-2.73l0.38-3.78c0.2-2.03-1.29-3.85-3.32-4.06l-19.51-2.92
					c-2.54-0.35-4.94,1.49-5.65,3.59C815,702.24,811.52,710.21,815.5,710.44z"/>
				<path class="st2" d="M813.62,722.02l24.64,2.47c3.2,0.32,6.09-2.04,6.41-5.24l0,0c0.32-3.2-2.04-6.09-5.24-6.41l-24.64-2.47
					c-3.2-0.32-5.97-0.2-6.41,5.24l0,0C807.38,720.14,810.42,721.7,813.62,722.02z"/>
				<path class="st2" d="M814.67,731.64l19.61,1.09c2.77,0.28,5.05-0.89,5.33-3.66l0,0c0.28-2.77-1.76-5.25-4.52-5.53l-19.41-1.95
					c-2.77-0.28-5.54-0.67-5.53,4.52l0,0C809.89,729.77,811.91,731.42,814.67,731.64z"/>
				<path class="st2" d="M814.86,740.23l11.38,1.14c2.39,0.24,4.53-1.52,4.77-3.9l0,0c0.24-2.39-1.52-4.53-3.9-4.77l-11.38-1.14
					c-2.39-0.24-4.53,1.52-4.77,3.9l0,0C810.72,737.84,812.47,739.99,814.86,740.23z"/>
				<path class="st15" d="M842.26,703.8c-1.46-0.3-3.42-0.61-5.07-0.61c-1.14,0-2.1,0.85-2.21,1.99l-0.31,3.27
					c-0.11,1.13,0.71,2.15,1.84,2.27c1.39,0.15,3.31,0.29,5.18,0.22c1.31-0.05,2.36-1.09,2.45-2.39l0.14-2.08
					C844.38,705.19,843.51,704.05,842.26,703.8z"/>
				<path class="st15" d="M843.33,715.72c-1.45-0.29-3.38-0.61-5.02-0.61c-1.13,0-2.08,0.84-2.19,1.97l-0.3,3.23
					c-0.1,1.12,0.7,2.13,1.83,2.25c1.37,0.15,3.28,0.29,5.12,0.22c1.29-0.05,2.34-1.08,2.43-2.37l0.14-2.06
					C845.42,717.1,844.57,715.97,843.33,715.72z"/>
				<path class="st15" d="M838.76,725.64c-1.23-0.25-2.87-0.52-4.26-0.51c-0.96,0-1.77,0.71-1.86,1.67l-0.26,2.75
					c-0.09,0.95,0.6,1.81,1.55,1.91c1.17,0.13,2.79,0.25,4.35,0.19c1.1-0.04,1.99-0.91,2.06-2.01l0.12-1.75
					C840.54,726.81,839.81,725.85,838.76,725.64z"/>
				<path class="st15" d="M830.36,734.81c-1.07-0.22-2.49-0.45-3.7-0.45c-0.83,0-1.53,0.62-1.61,1.45l-0.22,2.38
					c-0.08,0.83,0.52,1.57,1.35,1.65c1.01,0.11,2.42,0.21,3.78,0.16c0.95-0.04,1.72-0.79,1.79-1.74l0.1-1.52
					C831.9,735.83,831.27,735,830.36,734.81z"/>
			</g>
		</g>
		<path class="st1" d="M1277.54,817.19H6.46c-1.76,0-3.2-1.44-3.2-3.2v-2.7c0-1.76,1.44-3.21,3.21-3.21h1271.08
			c1.76,0,3.21,1.44,3.21,3.21v2.7C1280.74,815.75,1279.3,817.19,1277.54,817.19z"/>
		<g>
			<g>
				<g>
					<path class="st3" d="M535.27,807.8h-31.79c-0.13-0.47-0.26-0.95-0.39-1.41c-1.5-5.43-2.82-9.82-3.64-11.79
						c-0.76-1.82-1.76-3.13-2.84-4.06c-3.41-2.98-7.64-2.27-7.64-2.27l-3.63-5.71l-15.12-23.8v0l-0.4-0.63c0,0-0.52-4.17-0.77-9.69
						c0-0.05,0-0.1,0-0.16c-0.15-3.33-0.2-7.14,0.03-10.81c0.02-0.23,0.03-0.47,0.04-0.71c0.35-4.82,1.18-9.33,2.9-12.14
						c0,0,0-0.01,0.01-0.02c0.6-0.97,1.29-1.73,2.12-2.24c2.89-1.77,8.23-3.51,13.3-3.78c3.13-0.17,6.16,0.22,8.46,1.49
						c0.12,0.07,0.24,0.14,0.36,0.21c0.02-0.85,0.01-1.68,0-2.51c-0.06-4.24-0.35-8.21,0.76-10.99c1.8-4.57,4.84-7.01,7.39-8.31
						c0.89-0.45,1.85-0.36,2.6,0.09c0.09,0.05,0.18,0.1,0.26,0.17c0.72,0.54,1.19,1.42,1.11,2.44c-0.16,1.97-0.25,4.52-0.15,7.39
						c0.32,7.85,2.24,18.13,9.24,25.29c12.86,13.19,4.87,27.99,5.59,35.64c0.21,2.21,1.8,7.74,4,14.53
						C529.44,791.36,532.52,800.16,535.27,807.8z"/>
					<path class="st13" d="M507.24,708.39l1.01,0.18c-0.11-2.88,1.41-8.85,1.57-10.81c0.08-1.03-1.82-0.43-2.44,0.36
						c-0.42,0.35-0.83,1.43-0.99,1.99c-0.47,1.6-1.01,3.76-1.16,5.61C505.1,707.01,505.96,708.16,507.24,708.39z"/>
				</g>
				<path class="st10" d="M539.69,807.8h-37.07c0.13-0.47,0.28-0.94,0.47-1.41c3.78-9.71,17.87-18.79,23.98-22.36
					c1.76-1.03,2.86-1.6,2.86-1.6S533.93,792.72,539.69,807.8z"/>
				<g>
					<g>
						<path class="st1" d="M490.14,806.54l0.95,0.01c3.13,0.04,5.67-1.47,5.65-3.36l-1.17-116.65l-7.06-0.08l-3.85,116.65
							C484.61,804.97,487.07,806.51,490.14,806.54z"/>
					</g>
					<path class="st1" d="M415.59,688.47l153.19,1.75c4.32,0.05,7.9-3.44,7.95-7.77l1.61-141.4c0.05-4.32-3.45-7.9-7.77-7.94
						l-153.19-1.75c-4.32-0.05-7.9,3.45-7.94,7.77l-1.62,141.4C407.77,684.85,411.27,688.42,415.59,688.47z"/>
					<path class="st14" d="M443.42,681.35l97.68,1.12c15.19,0.17,27.76-12.11,27.93-27.3l0.99-87.01
						c0.17-15.19-12.11-27.76-27.3-27.93l-97.68-1.12c-15.19-0.17-27.76,12.11-27.93,27.3l-0.99,87.01
						C415.95,668.61,428.24,681.18,443.42,681.35z"/>
				</g>
				<g>
					<path class="st2" d="M472.41,724.72l26.3,6.33c2.21,0.6,3.92-0.15,4.52-2.36l1.12-4.12c0.6-2.21-0.72-4.52-2.93-5.12
						l-21.11-6.85c-2.75-0.86-5.76,0.74-6.93,2.93C473.38,715.54,468.04,723.74,472.41,724.72z"/>
					<path class="st2" d="M468.19,737.23l26.88,7.3c3.5,0.95,7.13-1.13,8.08-4.63l0,0c0.95-3.5-1.14-7.13-4.63-8.08l-26.88-7.3
						c-3.5-0.95-6.58-1.32-8.08,4.63l0,0C461.61,733.99,464.69,736.28,468.19,737.23z"/>
					<path class="st2" d="M467.58,748.1l21.56,4.83c3.02,0.82,5.77-0.06,6.59-3.07l0,0c0.82-3.02-0.98-6.16-4-6.98l-21.18-5.75
						c-3.02-0.82-6.02-1.77-6.98,4l0,0C462.62,745.14,464.56,747.34,467.58,748.1z"/>
					<path class="st2" d="M466.2,757.66l12.42,3.37c2.6,0.71,5.31-0.84,6.02-3.45l0,0c0.71-2.6-0.84-5.31-3.45-6.02l-12.42-3.37
						c-2.6-0.71-5.31,0.84-6.02,3.45l0,0C462.04,754.25,463.6,756.96,466.2,757.66z"/>
					<path class="st13" d="M503.34,722.3c-1.57-0.6-3.68-1.31-5.51-1.62c-1.27-0.21-2.49,0.55-2.82,1.8l-0.94,3.57
						c-0.33,1.24,0.39,2.51,1.63,2.86c1.52,0.42,3.62,0.94,5.7,1.2c1.46,0.19,2.82-0.77,3.16-2.2l0.54-2.28
						C505.43,724.23,504.68,722.81,503.34,722.3z"/>
					<path class="st13" d="M502.32,735.73c-1.55-0.59-3.64-1.3-5.45-1.6c-1.25-0.21-2.46,0.55-2.79,1.78l-0.93,3.53
						c-0.32,1.22,0.39,2.49,1.61,2.83c1.5,0.42,3.58,0.93,5.64,1.19c1.44,0.18,2.79-0.76,3.13-2.18l0.53-2.25
						C504.39,737.65,503.65,736.24,502.32,735.73z"/>
					<path class="st13" d="M495.42,745.89c-1.32-0.5-3.09-1.1-4.64-1.36c-1.07-0.18-2.09,0.47-2.37,1.51l-0.79,3
						c-0.27,1.04,0.33,2.11,1.37,2.4c1.27,0.35,3.05,0.79,4.8,1.01c1.23,0.16,2.37-0.65,2.66-1.85l0.46-1.92
						C497.17,747.52,496.54,746.32,495.42,745.89z"/>
					<path class="st13" d="M484.4,754.52c-1.14-0.44-2.68-0.96-4.02-1.18c-0.92-0.15-1.82,0.4-2.06,1.31l-0.69,2.6
						c-0.24,0.9,0.29,1.83,1.19,2.09c1.11,0.31,2.64,0.68,4.16,0.88c1.06,0.14,2.06-0.56,2.31-1.61l0.39-1.66
						C485.93,755.93,485.38,754.89,484.4,754.52z"/>
				</g>
			</g>
			<g>
				<path class="st1" d="M461.7,569.43c-0.67-1.07-2.33-1.61-4.96-1.63c-2.73-0.02-6.32,0.12-10.79,0.43
					c-4.47,0.31-7.72,0.79-9.77,1.46c-4.01,1.25-6.02,3.4-6.04,6.46c-0.03,4.25,2.5,6.4,7.61,6.44l8.43,0.06l-0.47,63.79l-9.95-0.07
					c-5.7-0.04-8.57,2.4-8.6,7.34c-0.02,2.38,0.8,4.24,2.44,5.57c1.65,1.33,3.71,2.01,6.17,2.02l34.96,0.26
					c5.61,0.04,8.44-2.49,8.48-7.59c0.04-4.85-2.75-7.3-8.36-7.34l-8.68-0.07l0.51-69.02C462.69,573.2,462.37,570.5,461.7,569.43z"
					/>
				<path class="st1" d="M554.86,583.32c-4.69-8.78-11.57-13.98-20.64-15.6c-1.95-0.35-4.01-0.53-6.16-0.55
					c-12.17-0.09-21.18,5.16-27.04,15.75c-4.57,8.3-6.9,19.05-7,32.23c-0.1,13.18,2.12,24,6.65,32.46
					c5.7,10.68,14.6,16.06,26.68,16.15c12.08,0.09,21.05-5.16,26.91-15.75c4.65-8.39,7.03-19.17,7.12-32.36
					c0.01-0.86,0-1.71-0.01-2.55c0,0,0,0,0,0C561.19,601.07,559.02,591.15,554.86,583.32z M544.8,615.47
					c-0.06,8.43-1.05,15.42-2.96,20.95c-2.87,8.5-7.62,12.73-14.26,12.68c-11.48-0.09-17.15-11.37-16.98-33.88
					c0.06-8.35,1.09-15.33,3.09-20.94c2.87-8.33,7.66-12.47,14.38-12.42c6.55,0.05,11.24,4.3,14.07,12.76
					C543.98,600.25,544.87,607.2,544.8,615.47z"/>
			</g>
		</g>
	</g>
</g>
</svg>
