<?xml version="1.0" encoding="utf-8"?>
<!-- Generator: Adobe Illustrator 23.0.3, SVG Export Plug-In . SVG Version: 6.00 Build 0)  -->
<svg version="1.1" id="Layer_1" xmlns="http://www.w3.org/2000/svg" xmlns:xlink="http://www.w3.org/1999/xlink" x="0px" y="0px"
	 viewBox="0 0 1280 1024" style="enable-background:new 0 0 1280 1024;" xml:space="preserve">
<style type="text/css">
	.st0{fill:#E8E8E8;}
	.st1{opacity:0.5;fill:#E8E8E8;}
	.st2{fill:#B5BFC7;}
	.st3{fill:#03A1FC;}
	.st4{fill:#131F2D;}
	.st5{fill:#FD7955;}
	.st6{fill:#364154;}
	.st7{fill:#026EB7;}
	.st8{fill:#ED6343;}
	.st9{fill:#FFFFFF;}
	.st10{fill:#9D462D;}
	.st11{fill:#A9C2FF;}
	.st12{fill:#214A80;}
	.st13{fill:#E8F2FA;}
</style>
<g>
	<path class="st0" d="M561.86,325.15l15.11-1.7c1.26-0.13,2.48,0.46,3.17,1.52c0.87,1.36,1.81,2.69,2.81,3.99
		c1.86,2.42,3.85,4.66,5.98,6.68c1,0.95,1.33,2.39,0.82,3.66l-5.8,14.8c-0.63,1.57,0.06,3.38,1.61,4.14l13.02,6.45
		c1.48,0.73,3.25,0.23,4.14-1.15l7.87-12.34c0.74-1.22,2.21-1.78,3.63-1.4c5.98,1.58,12.21,2.2,18.44,1.84
		c1.5-0.09,2.9,0.89,3.35,2.32l2.67,8.49c0.52,1.61,2.17,2.61,3.84,2.28l14.14-2.86c0.29-0.06,0.56-0.14,0.82-0.27
		c1.23-0.58,1.98-1.92,1.81-3.31L658.05,347l-0.31-2.75c2.35-1.32,4.66-2.84,6.86-4.53c2.96-2.27,5.66-4.78,8.05-7.45
		c0.91-1.02,2.35-1.38,3.62-0.87l11.92,4.68c1.63,0.63,3.48-0.07,4.24-1.64l4.93-9.96l1.41-2.86c0.77-1.56,0.25-3.46-1.21-4.38
		l-10.31-6.59c-1.2-0.75-1.8-2.18-1.45-3.53c0.96-4.06,1.5-8.22,1.57-12.37c0.04-0.36,0.03-0.69,0.03-1.05
		c-0.01-0.12,0.01-0.24,0.02-0.35c0.13-1.33,1.06-2.44,2.34-2.84l13.78-4.36c0.16-0.04,0.31-0.11,0.45-0.18
		c1.34-0.65,2.11-2.16,1.82-3.65l-2.83-14.1c-0.34-1.7-1.92-2.86-3.66-2.67l-15.76,1.78c-1.34,0.17-2.62-0.52-3.25-1.71
		c-1.42-2.59-3.07-5.11-4.94-7.55c-0.99-1.29-2.02-2.53-3.1-3.71c-0.87-0.97-1.12-2.34-0.65-3.54l5.57-14.23
		c0.62-1.56-0.07-3.36-1.59-4.12l-12.89-6.36c-1.56-0.77-3.45-0.26-4.4,1.22l-6.23,9.76c-0.84,1.31-2.44,1.87-3.9,1.38
		c-5.73-1.99-11.73-3.05-17.78-3.19c-1.43-0.01-2.7-0.96-3.14-2.34l-3.93-12.42c-0.53-1.67-2.23-2.66-3.94-2.33l-14.05,2.81
		c-1.69,0.33-2.83,1.92-2.63,3.61l0.07,0.66l1.47,13.12c0.16,1.41-0.56,2.73-1.82,3.38l-0.01,0.01c-3.01,1.56-5.93,3.4-8.72,5.54
		c-1.49,1.14-2.89,2.34-4.25,3.59c-0.93,0.88-2.28,1.14-3.47,0.68l-12.1-4.75c-1.65-0.66-3.54,0.08-4.31,1.66l-6.34,12.84
		c-0.18,0.37-0.28,0.76-0.33,1.13c-0.13,1.23,0.44,2.48,1.52,3.18l8.25,5.24c1,0.65,1.59,1.8,1.54,2.96
		c-0.02,0.31-0.07,0.62-0.17,0.92c-2.51,7.36-3.51,15.14-2.97,22.9c0.11,1.32-0.62,2.55-1.76,3.15c-0.16,0.08-0.34,0.16-0.53,0.21
		l-11.16,3.52c-1.62,0.51-2.59,2.16-2.27,3.83l0.06,0.33l2.75,13.75C558.51,324.18,560.11,325.34,561.86,325.15z M658.56,282.23
		c0.86,2.16,1.56,4.49,2.05,6.98c0.92,4.75-0.04,12.25-2.18,16.59c-0.23,0.47-0.46,0.92-0.7,1.38
		c-14.79,27.45-53.56,21.99-59.94-8.98c-0.83-4.05-0.31-9.95,1.14-14.47c0.35-1.04,0.73-2.02,1.16-2.85
		c1.98-3.94,4.42-7.24,7.21-9.93C623.21,255.65,649.81,260.66,658.56,282.23z"/>
	<path class="st0" d="M1041.77,272.21c-14.51-29.24-64.75-9.22-64.75-9.22s-24.67,61.12-34.72,64.46
		c-10.05,3.33,10.89-56.38,10.89-56.38c-20.34,2.03-66.35,36.61-66.35,36.61s15.76,62.46,5.2,63.22
		c-10.56,0.76-11.13-56.02-11.13-56.02c-18.17,9.63-31.72,35.75-31.72,35.75c-15.25,41.18,38.42,58.63,38.42,58.63
		s4.99,21.76-3.54,49.56l0,0c0,0-2.13,5.24-3.67,13.74l5.27-1.05c0.15-1.5,0.35-2.96,0.62-4.37c0-0.01,0-0.02,0.01-0.03
		c0-0.02,0.01-0.04,0.01-0.06c0.2-0.89,0.49-2.15,0.85-3.69c0,0,0,0,0-0.01c0,0,0,0,0-0.01c0.98-3.47,1.61-6.01,1.96-7.83
		c0-0.01,0-0.01,0-0.02c2.86-10.84,7.24-25.11,11.34-28.73c0,0-0.75-0.7-1.61-2.19c0.51,0.7,1.05,1.43,1.61,2.19
		c12.85,17.53,58.56,11.79,82.65,1.65s11.74-15.05-4.07-23.86c-15.81-8.81-43.53-0.15-52.8-3c-9.27-2.84,2.07-9.78,19.07-11.82
		c17-2.04,28.69,13.04,56.25,10.24c27.56-2.8,38.05-57.76,38.05-57.76c-17.52,9.5-53.05,5.85-55.62-0.33
		c-2.57-6.18,47.14-15.39,54.48-18.86C1045.83,319.59,1056.28,301.45,1041.77,272.21z"/>
	<path class="st0" d="M212.88,496.98c-5.91-32.11,46.31-46.18,46.31-46.18s56.38,34.15,66.42,30.8c10.04-3.35-42.5-38.61-42.5-38.61
		c17.51-10.56,75.06-10.45,75.06-10.45s24.81,59.45,33.72,53.73c8.91-5.72-24.66-51.52-24.66-51.52
		c20.32-3.17,46.81,9.62,46.81,9.62c36.88,23.83,4.37,69.96,4.37,69.96s9.04,20.42,32.53,37.56l0,0c0,0,4.85,2.92,11.17,8.8
		l-4.84,2.32c-1.02-1.11-2.05-2.16-3.11-3.13c0-0.01-0.01-0.01-0.02-0.02c-0.02-0.01-0.03-0.03-0.05-0.04
		c-0.69-0.59-1.68-1.43-2.89-2.44c0,0,0,0,0,0c0,0,0,0-0.01,0c-2.87-2.19-4.89-3.85-6.26-5.09c0,0-0.01-0.01-0.01-0.01
		c-8.79-6.97-20.84-15.76-26.29-16.21c0,0,0.18-1.01-0.03-2.72c0.01,0.87,0.02,1.77,0.03,2.72c0.21,21.73-39.82,44.53-65.18,50.85
		c-25.36,6.32-18.41-5.02-11.04-21.54c7.38-16.52,34.76-26.21,40.48-34.04c5.71-7.83-7.52-6.59-22.35,1.96
		c-14.83,8.55-15.16,27.63-38.89,41.91c-23.74,14.27-65.08-23.44-65.08-23.44c19.72-2.89,45.98-27.1,44.33-33.59
		c-1.65-6.49-46.96,15.93-54.92,17.55C238.03,537.35,218.79,529.09,212.88,496.98z"/>
	<path class="st0" d="M1072.75,703.06c25.69-20.14-4.1-65.27-4.1-65.27s-64.86-11.76-70.16-20.92c-5.3-9.16,57.41-0.77,57.41-0.77
		c-6.12-19.51-49.3-57.55-49.3-57.55s-57.97,28.1-60.85,17.91c-2.88-10.18,52.6-22.26,52.6-22.26
		c-13.12-15.83-41.44-23.81-41.44-23.81c-43.41-6.58-49.62,49.51-49.62,49.51s-20.3,9.3-49.25,6.59l0,0c0,0-5.57-1.02-14.2-0.8
		l2.09,4.94c1.5-0.16,2.97-0.25,4.41-0.28c0.01,0,0.02,0,0.03,0c0.02,0,0.04,0,0.06,0c0.91,0.02,2.2,0.04,3.78,0.09c0,0,0,0,0.01,0
		c0,0,0,0,0.01,0c3.6,0.26,6.21,0.36,8.06,0.33c0.01,0,0.01,0,0.02,0c11.2,0.6,26.05,2,30.43,5.28c0,0,0.54-0.87,1.82-2.02
		c-0.58,0.64-1.19,1.31-1.82,2.02c-14.56,16.14,0.33,59.74,15.14,81.27c14.81,21.53,17.12,8.44,22.54-8.82
		c5.42-17.26-8.68-42.66-7.78-52.31c0.91-9.65,10,0.05,15.44,16.28c5.44,16.23-6.95,30.74,1.38,57.16
		c8.33,26.42,64.28,25.55,64.28,25.55c-12.86-15.23-16.49-50.76-10.96-54.53c5.53-3.77,24.63,43.04,29.51,49.53
		C1027.17,716.65,1047.06,723.2,1072.75,703.06z"/>
	<g>
		<path class="st1" d="M839.49,325.09c0,0,3.01-60.16,31.13-97.87c3.74-5.01,11.72-2.53,12.02,3.71c0.01,0.1,0.01,0.21,0.01,0.32
			C882.99,241.92,851.85,289.17,839.49,325.09z"/>
		<path class="st1" d="M836.95,342.42c0,0,25.33-76.67,75.09-113.24c3.03-2.23,7.38-1.8,9.72,1.15c1.52,1.92,2.36,5.03,1.15,10.05
			C919.67,253.79,864.68,301.94,836.95,342.42z"/>
	</g>
	<g>
		<path class="st1" d="M406.15,422.8c0,0-25.24-44.03-60.77-61.61c-4.72-2.34-9.77,2.57-7.61,7.38c0.04,0.08,0.07,0.16,0.11,0.24
			C341.7,376.95,383.14,400.55,406.15,422.8z"/>
		<path class="st1" d="M414.67,434.85c0,0-48.31-47.91-99.65-56.36c-3.13-0.52-6.23,1.47-6.86,4.58c-0.41,2.03,0.15,4.68,2.98,7.99
			C318.69,399.88,378.39,415.04,414.67,434.85z"/>
	</g>
	<path class="st2" d="M963.52,327.62v381.93c0,6.68-4.82,12.1-10.77,12.1H401.71c-5.95,0-10.77-5.42-10.77-12.1V327.62
		c0-6.69,4.82-12.1,10.77-12.1h551.03C958.69,315.52,963.52,320.94,963.52,327.62z"/>
	<g>
		<path class="st3" d="M936.28,305.82v30.97H321.32v-30.97c0-6.39,5.18-11.57,11.57-11.57h591.82
			C931.1,294.25,936.28,299.43,936.28,305.82z"/>
		<g>
			<path class="st0" d="M340.14,315.52c0-2.97,2.41-5.39,5.39-5.39c2.97,0,5.39,2.41,5.39,5.39c0,2.97-2.41,5.39-5.39,5.39
				C342.55,320.91,340.14,318.5,340.14,315.52z"/>
			<path class="st0" d="M361.36,315.52c0-2.97,2.41-5.39,5.39-5.39c2.97,0,5.39,2.41,5.39,5.39c0,2.97-2.41,5.39-5.39,5.39
				C363.77,320.91,361.36,318.5,361.36,315.52z"/>
			<path class="st0" d="M383.11,315.52c0-2.97,2.41-5.39,5.39-5.39c2.97,0,5.39,2.41,5.39,5.39c0,2.97-2.41,5.39-5.39,5.39
				C385.52,320.91,383.11,318.5,383.11,315.52z"/>
		</g>
	</g>
	<path class="st0" d="M719.72,260.89l7.36-0.83c0.61-0.06,1.21,0.22,1.55,0.74c0.43,0.66,0.88,1.31,1.37,1.94
		c0.91,1.18,1.87,2.27,2.91,3.25c0.49,0.46,0.65,1.16,0.4,1.78l-2.82,7.21c-0.31,0.77,0.03,1.65,0.78,2.02l6.34,3.14
		c0.72,0.35,1.58,0.11,2.02-0.56l3.84-6.01c0.36-0.59,1.08-0.87,1.77-0.68c2.91,0.77,5.95,1.07,8.98,0.89
		c0.73-0.04,1.41,0.43,1.63,1.13l1.3,4.14c0.25,0.78,1.05,1.27,1.87,1.11l6.89-1.39c0.14-0.03,0.27-0.07,0.4-0.13
		c0.6-0.28,0.96-0.93,0.88-1.61l-0.61-5.5l-0.15-1.34c1.15-0.64,2.27-1.38,3.34-2.21c1.44-1.11,2.76-2.33,3.92-3.63
		c0.45-0.49,1.14-0.67,1.76-0.42l5.8,2.28c0.8,0.31,1.69-0.04,2.07-0.8l2.4-4.85l0.68-1.39c0.38-0.76,0.12-1.68-0.59-2.14
		l-5.02-3.21c-0.59-0.37-0.87-1.06-0.71-1.72c0.47-1.98,0.73-4,0.77-6.03c0.02-0.18,0.02-0.34,0.01-0.51c0-0.06,0-0.11,0.01-0.17
		c0.06-0.65,0.51-1.19,1.14-1.38l6.71-2.12c0.08-0.02,0.15-0.05,0.22-0.09c0.65-0.32,1.03-1.05,0.89-1.78l-1.38-6.87
		c-0.17-0.83-0.94-1.39-1.78-1.3l-7.68,0.87c-0.65,0.08-1.27-0.25-1.58-0.83c-0.69-1.26-1.49-2.49-2.4-3.68
		c-0.48-0.63-0.98-1.23-1.51-1.81c-0.42-0.47-0.55-1.14-0.31-1.72l2.71-6.93c0.3-0.76-0.03-1.64-0.77-2l-6.28-3.1
		c-0.76-0.38-1.68-0.13-2.14,0.59l-3.04,4.75c-0.41,0.64-1.19,0.91-1.9,0.67c-2.79-0.97-5.71-1.48-8.66-1.56
		c-0.7-0.01-1.32-0.47-1.53-1.14l-1.91-6.05c-0.26-0.81-1.09-1.3-1.92-1.13l-6.84,1.37c-0.82,0.16-1.38,0.94-1.28,1.76l0.03,0.32
		l0.71,6.39c0.08,0.68-0.27,1.33-0.89,1.65l-0.01,0c-1.47,0.76-2.89,1.65-4.25,2.7c-0.72,0.56-1.41,1.14-2.07,1.75
		c-0.45,0.43-1.11,0.56-1.69,0.33l-5.89-2.32c-0.81-0.32-1.72,0.04-2.1,0.81l-3.09,6.25c-0.09,0.18-0.14,0.37-0.16,0.55
		c-0.06,0.6,0.22,1.21,0.74,1.55l4.02,2.55c0.49,0.32,0.77,0.87,0.75,1.44c-0.01,0.15-0.03,0.3-0.08,0.45
		c-1.22,3.59-1.71,7.37-1.45,11.15c0.05,0.64-0.3,1.24-0.86,1.54c-0.08,0.04-0.17,0.08-0.26,0.1l-5.44,1.72
		c-0.79,0.25-1.26,1.05-1.1,1.87l0.03,0.16l1.34,6.7C718.09,260.42,718.87,260.99,719.72,260.89z M766.81,239.99
		c0.42,1.05,0.76,2.19,1,3.4c0.45,2.31-0.02,5.96-1.06,8.08c-0.11,0.23-0.23,0.45-0.34,0.67c-7.2,13.37-26.08,10.71-29.19-4.37
		c-0.4-1.97-0.15-4.84,0.55-7.05c0.17-0.51,0.35-0.99,0.56-1.39c0.96-1.92,2.15-3.53,3.51-4.83
		C749.6,227.05,762.55,229.48,766.81,239.99z"/>
	<g>
		<path class="st4" d="M291.33,606.45c0,0,0.82-8.94-9.17-8.94c0,0,3.03,0.82,4.59,2.46c0,0-6.37-3.74-13.3,2.01
			c-6.93,5.75-2.62,20.16-4.73,22.89c-2.11,2.74-10.32,3.28-9.31,12.13c1,8.85,26.05,19.93,24.44,27.25c0,0,9.82-14.43,2.8-21.01
			c0,0,3.42,3.22,3.77,7.05c0,0,0.93-7.48-3.83-9.87c-4.21-2.12-7.66-9.86-7.3-11.24C279.66,627.79,291.33,606.45,291.33,606.45z"/>
		<path class="st5" d="M281.5,649.36c0,0,7.46,30.87,14.78,37.04c4.4,3.71,17.49,12.22,17.49,12.22l-5.44,1.98
			c0,0-18.15-6.13-22.22-10.91c-4.06-4.78-15.19-28.72-15.19-28.72L281.5,649.36z"/>
		<path class="st6" d="M211.38,703.59c0.07,0.12,0.14,0.24,0.21,0.36c1.63,2.84,5.38,9.79,9.5,17.4c1.95,3.61,3.99,7.37,5.93,10.9
			c3.34,6.1,6.38,11.54,8.15,14.41c1.8,2.92,3.13,4.97,3.67,5.79c0,0,0,0,0,0c0.16,0.25,0.2,0.55,0.17,0.85
			c-0.19,2.58-0.14,5.13,0.12,7.65c2.49,24.75,19.18,38.02,19.18,38.02l4.96,0.73c0,0-7.02-26.02-9.09-40.73
			c-0.35-2.49-0.5-4.51-0.38-5.83c0.37-3.83-0.31-9.46-1.6-15.92c-2.29-11.48-6.5-25.57-10.15-36.85
			c-0.23-0.72-7.21-25.97-7.21-25.97c-5.86,5.12-27.23,7.23-27.23,7.23S203.99,690.45,211.38,703.59z"/>
		<path class="st4" d="M273.69,805.99h-20.71c0,0-0.5-3.16,0.59-5.55c1.04-2.3,2.51-2.37,0.19-5.97c1.32,1.36,5.55,1.92,8.54,1.51
			c0.37,0.59,2.37,4.59,3.59,5.47C267.24,802.42,273.28,802.07,273.69,805.99z"/>
		<path class="st4" d="M211.38,703.59c0.07,0.12,0.14,0.24,0.21,0.36c1.63,2.84,10.46,19.15,14.59,26.75
			c-4.78-19.67-1.46-39.33-1.46-39.33L211.38,703.59z"/>
		<path class="st4" d="M288.5,605.19c0.14-0.54-11.83,5.41-12.44,6.08c-5.61,6.23-4.01,14.35-0.8,14.43
			c2.06,0.05,1.66,3.47,1.66,3.47l22.94-9.71C299.87,619.47,297.11,603.36,288.5,605.19z"/>
		<path class="st3" d="M280.79,644.73c0,0,3.49,6.97,3.06,12.63c0,0-4.21,6.65-15.13,8.33
			C268.72,665.69,278.11,644.72,280.79,644.73z"/>
		<path class="st6" d="M227.53,683.18l0.07-3.87c-7.72,0.97-26.61-9.22-26.61-9.22s-8.08,5.37-9.18,20.71
			c-0.54,7.49-3.95,39.15-4.33,48.6c-0.14,3.43-0.18,5.87-0.2,6.85c0,0,0,0.01,0,0.01c0,0.3-0.14,0.56-0.33,0.8
			c-1.6,2.03-2.98,4.18-4.18,6.41c-11.78,21.91-5.62,51.69-5.62,51.69l2.74-0.7c0,0,9.96-30.87,16.47-44.22
			c1.1-2.26,2.11-4.03,2.95-5.05c2.45-2.97,5.03-8.02,7.57-14.1C211.68,729.61,227.53,683.18,227.53,683.18z"/>
		<path class="st4" d="M193.62,805.99H172.9c0,0-0.5-3.16,0.59-5.55c1.04-2.3,2.66-3.34,2.27-6.12c1.32,1.36,3.46,2.87,6.46,2.47
			c0.37,0.6,2.37,3.78,3.59,4.66C187.16,802.42,193.2,802.07,193.62,805.99z"/>
		<path class="st3" d="M267.32,670.14c-2.78,0.47,0.45,2.69-3.37,3.1c-5.45,0.59-11.07,1-14.02,2.18c-1.07,0.43-1.79,0.96-2.02,1.63
			c-1.28,3.84-9.36,10.44-9.36,10.44c-36.07-1.64-38.39-17.72-38.39-17.72c23.41-22.74,43.32-35.13,59.78-36.66
			c4.01-0.37,9.41,0.13,11.94,1.26c5.76,2.56,8.91,10.36,8.91,10.36S277.9,668.33,267.32,670.14z"/>
		<path class="st7" d="M263.95,673.24c-5.45,0.59-11.07,1-14.02,2.18c-1.2-17.99,7.29-31.52,7.29-31.52S262.76,666.43,263.95,673.24
			z"/>
		<path class="st5" d="M271.58,635.85c1.03,3.23,4.46,12.41,9.22,8.88c-0.16-0.69,0.84-2.68,2.02-4.71c1.51-2.59,3.3-5.23,3.3-5.23
			l-7.75-6.79l-0.46-0.41c-2.03,3.54-4.02,5.24-5.77,6.55C271.6,634.53,271.37,635.22,271.58,635.85z"/>
		<path class="st8" d="M286.11,634.79c0,0-1.79,2.64-3.3,5.23c-4.82-2.97-4.82-8.94-4.45-12.03L286.11,634.79z"/>
		<path class="st5" d="M286.33,638.19c0,0-11.7-6.51-7.53-13.73c4.17-7.22,5.46-12.93,13.11-9.08c7.65,3.85,7.49,7.44,6.69,10.19
			C297.79,628.32,289.48,639.7,286.33,638.19z"/>
		<path class="st4" d="M300.57,621.35c-0.54-3.21-2.17-3.51-3.3-3.3c-4.32-7.15-11.38-4.36-11.38-4.36
			c-3.77,4.73-9.22,5.54-9.22,5.54s1.36,2.53,6.95,4.09c1.71,0.48,3.65,0.19,5.52-0.44c-3.88,2.16-7.94,2.99-7.94,2.99
			c7.37,0.67,14.39-6.07,15.11-6.79c0.34,1.04,0.94,3.23,0.58,4.83c-0.49,2.17-2.41,6.11-1.24,6.62
			C295.65,630.54,301.37,626.16,300.57,621.35z"/>
		<g>
			
				<rect x="319.35" y="734.1" transform="matrix(0.8989 0.4382 -0.4382 0.8989 364.4807 -85.6954)" class="st3" width="97.12" height="25.47"/>
			<g>
				<path class="st3" d="M291.37,741.79c-8.01-3.91-13.71-11.15-15.62-19.86c-0.78-3.54,1.46-7.04,5-7.81
					c3.54-0.78,7.04,1.46,7.81,5c1.05,4.78,4.17,8.74,8.56,10.88c7.87,3.84,17.4,0.56,21.24-7.32c3.84-7.87,0.56-17.4-7.32-21.24
					c-3.58-1.74-7.64-2.08-11.46-0.96c-3.47,1.03-7.12-0.96-8.15-4.43c-1.03-3.47,0.96-7.12,4.43-8.15
					c6.96-2.06,14.39-1.44,20.92,1.75c14.38,7.01,20.37,24.41,13.36,38.78C323.14,742.8,305.75,748.8,291.37,741.79z"/>
			</g>
			<g>
				<path class="st3" d="M414.87,802c-14.38-7.01-20.37-24.41-13.36-38.78c7.01-14.38,24.41-20.37,38.78-13.36
					c6.53,3.18,11.59,8.65,14.26,15.41c1.33,3.37-0.32,7.18-3.69,8.51c-3.37,1.33-7.18-0.32-8.51-3.69
					c-1.46-3.7-4.23-6.69-7.81-8.44c-7.87-3.84-17.4-0.56-21.24,7.32c-3.84,7.87-0.56,17.4,7.32,21.24
					c4.39,2.14,9.44,2.15,13.85,0.04c3.27-1.57,7.18-0.19,8.75,3.08c1.57,3.27,0.19,7.18-3.08,8.75
					C432.09,805.93,422.88,805.9,414.87,802z"/>
			</g>
			<path class="st7" d="M385.72,759.27l-45.99-22.42c-1.32-0.64-1.87-2.25-1.23-3.57l1.17-2.4c0.64-1.32,2.25-1.87,3.57-1.23
				l45.99,22.42c1.32,0.64,1.87,2.25,1.23,3.57l-1.17,2.4C388.64,759.36,387.04,759.91,385.72,759.27z"/>
		</g>
		<path class="st5" d="M279.63,718.53c0,0,0.25,2.18,1.17,3.31c0.92,1.13,3.6,3.85,3.65,5.44c0,0-0.14,0.71-0.71,0.58
			c-0.57-0.13-2.57-2.11-3.6-1.96c0,0,0.55,3.2,1.09,4.1c0.54,0.9,1.54,4.29,1.21,5.07c-0.33,0.78-5.75-3.74-7.39-5.95
			c-1.64-2.21-0.03-11.17-0.03-11.17L279.63,718.53z"/>
		<path class="st5" d="M268.65,640.85c0,0-13.7-0.75-16.13,7.85c-2.43,8.6,4.57,42.93,6.07,46.47c2.75,6.45,16.12,24.86,16.12,24.86
			l4.92-1.5c0,0-8.92-28.12-10.91-30.91C265.6,683.26,272.75,644.59,268.65,640.85z"/>
		<path class="st3" d="M249.82,660.2c0.04,0.2,12.96,2.38,21.05-1.73c0,0,6.75-21.16-2.9-20.15c-9.65,1.01-15.37,4.05-15.61,8.67
			C252.11,651.62,249.82,660.2,249.82,660.2z"/>
		<path class="st5" d="M307.05,684.86c-0.65,0.03-1.84,0.24-2.27,0.57c-0.75,0.58-1.59,1.58,0.09,2.41c2.51,1.25,7.53,0.7,7.33-0.06
			C311.58,685.41,310.67,684.69,307.05,684.86z"/>
	</g>
	<g>
		<path class="st5" d="M466.67,348.02c-0.66,0.76-0.74,1.6-0.42,2.51c0,0,0,0.01,0.01,0.01c0.6,1.67,2.6,3.54,4.92,5.4
			c0.3,0.24,0.56,0.46,0.79,0.66c0.06,0.05,0.12,0.11,0.18,0.16c0.05,0.04,0.09,0.08,0.14,0.12c2.16,1.99,1.35,2.45,5.24,6.5
			c4.43,4.61,7.48,4.69,8.35,4.27c0.73-0.36-0.76-2.8-2.41-5.55c-0.08-0.13-0.16-0.27-0.24-0.4c-0.22-0.37-0.44-0.74-0.66-1.1
			c-1.94-3.31-1.44-4.86-0.98-9.78c0.37-4,6.22-22.35,6.22-22.35l-8.49-1.46c0,0-2.56,14.61-5.38,16.86
			c-1.51,1.2-3.19,1.21-4.64,2.1c-0.1,0.06-0.2,0.13-0.3,0.19C468.17,346.7,467.33,347.26,466.67,348.02z"/>
		<path class="st4" d="M466.67,348.02c-0.66,0.76-0.74,1.6-0.42,2.51c0,0,0,0.01,0.01,0.01c0.74,1.67,2.69,3.52,4.93,5.38
			c0.29,0.24,0.55,0.47,0.78,0.68c0.06,0.05,0.12,0.11,0.18,0.16c0.05,0.04,0.09,0.08,0.14,0.12c2.16,1.99,1.35,2.45,5.24,6.5
			c4.43,4.61,7.48,4.69,8.35,4.27c0.73-0.36-0.76-2.8-2.41-5.55c-0.86-0.32-4.87-1.94-7.9-5.82c-2.67-3.4-4.45-7.78-6.26-10.31
			c-0.1,0.06-0.2,0.13-0.3,0.19C468.17,346.7,467.33,347.26,466.67,348.02z"/>
		<path class="st5" d="M535.14,342.71c0.52,2.62,4.26,2.18,8.44,1.16c4.17-1.02,3.18,0.19,9.12-0.47c5.94-0.66,7.74-2.87,7.92-3.76
			c0.16-0.78-2.77-1.06-5.92-1.42c-0.4-0.04-0.79-0.09-1.19-0.14c-3.55-0.45-6.16-2.74-9.39-4.62c-3.06-1.78-7.62-9.06-7.62-9.06
			l-8.15,0.65c0,0,4.28,6.49,5.93,9.32c0.97,1.66,0.92,3.86,0.8,5.55C535.02,340.85,534.96,341.79,535.14,342.71z"/>
		<path class="st4" d="M543.58,343.88c4.17-1.02,3.18,0.19,9.12-0.47c5.94-0.66,7.74-2.87,7.92-3.76c0.16-0.78-2.77-1.06-5.92-1.42
			l-0.03,0.06c0,0-3.56,2.53-8.51,2.64c-4.03,0.1-8.3-1.06-11.08-1.01c-0.06,0.92-0.12,1.86,0.06,2.79
			C535.67,345.33,539.4,344.9,543.58,343.88z"/>
		<path class="st4" d="M503.92,290.62l-7.62,20.5l-9.94,26.76c0,0-2.7,0.26-5.28-0.48c-2.38-0.69-5.11-2.49-5.11-2.49
			s2.76-28.73,7.91-45.23c1.32-4.23,2.8-7.66,4.43-9.59C496.29,270.65,503.92,290.62,503.92,290.62z"/>
		<path class="st6" d="M496.17,258.07c-4.99-1.61-19.22,0.46-33.52,3.26l-2.99-4.94l-30.88-2.41c0,0-10.19,22.6-4.61,37
			c0.82,2.12,2.45,3.47,5.23,3.52c0,0,0.45,0,0.45,0c0,0,18.38-0.01,24.35-0.01c15.36,0,32.5-10.56,34.72-11
			c3.63-0.73,5.08,6.53,8.71,14.16c3.63,7.62,34.12,33.76,34.12,33.76s4.69,0.05,6.62-0.68c2.08-0.78,2.84-1.8,2.84-1.8
			S507.43,261.7,496.17,258.07z"/>
		<path class="st4" d="M449.43,162.38c-4.33-1.11-10.25,0-11.23,0.09c-11.75,1.16-15.7,14.26-13.92,24.43
			c1.64,9.38-3.12,11.98-8.64,19.39c-11.06,14.86-3.83,27.39,4.9,30.63c5.24,1.94,12.51-2.95,12.51-2.95
			c0.13,0.05,22.84-14.88,32.16-23.3C480.71,204.6,460.46,165.21,449.43,162.38z"/>
		<path class="st5" d="M451.17,205.36c0.31,1.09-4.83,3.09-8.75,2.35c-3.69-0.69-7.83-5.01-6.97-5.42
			c1.41-0.67,2.36-2.34,1.59-11.37l0.7,0.08l11.81,1.35c0,0,0.04,3.68,0.31,7.12C450.08,202.38,450.66,203.59,451.17,205.36z"/>
		<path class="st8" d="M449.54,192.36c0,0,0.04,3.68,0.31,7.12c-6.52,0.35-10.44-5.3-12.12-8.47L449.54,192.36z"/>
		<path class="st5" d="M451.98,195.45c0,0-15.36,1.52-16.16-8.07c-0.8-9.58-3.32-15.84,6.46-17.21c9.78-1.37,11.99,2.13,13.03,5.26
			C456.35,178.56,455.95,194.81,451.98,195.45z"/>
		<path class="st4" d="M450.33,168.65c0,0-1.93,11.71-10.69,14.48c-6.38,2.03-9.27,0.69-9.27,0.69s3.07-4.08,4.17-9.74
			c0.32-1.67,1.51-3.04,3.12-3.57C442.2,169.02,447.69,164.94,450.33,168.65z"/>
		<path class="st4" d="M447.44,171.15c0,0,2.9,0.65,5.46,4.38c1.4,2.04,3.03,7.19,2.75,9.47c0,0,2.69-10.83-1.23-14.87
			C450.26,165.86,447.44,171.15,447.44,171.15z"/>
		<path class="st3" d="M423.5,236.84c0.27,1.16,0.51,2.23,0.7,3.22c0.31,1.59,0.53,2.97,0.68,4.18c0.47,3.78,0.33,6.02,0.65,8.47
			c0.18,1.37,0.5,2.81,1.15,4.61c0.64,1.76,17.33,3.32,26.83,2.69c3.02-0.2,5.31-0.62,6.13-1.32c3.39-2.94,3.05,3.53,3.52-27.44
			c0.22-15.11-12.82-28.56-12.82-28.56s-1.04,6.45-13.98-1.23c-0.46-0.27-5.55,7.27-10.46,16.56
			C420.49,228.28,421.97,230.45,423.5,236.84z"/>
		<path class="st6" d="M496.3,311.11l-9.94,26.76c0,0-2.7,0.26-5.28-0.48c-2.38-0.69-5.11-2.49-5.11-2.49s2.76-28.73,7.91-45.23
			L496.3,311.11z"/>
		<path class="st3" d="M450.33,202.68c0,0,13.31,2.26,14.87,7.99c1.56,5.73,12.36,37.78,12.36,37.78s-8.37,2.86-11.49-0.27
			c-3.13-3.13-10.88-29-10.88-29L450.33,202.68z"/>
		<path class="st9" d="M448.43,189.8c0,0,0.64,1.58,2.34,1.58c1.7,0,2.16-0.25,2.48-0.61c0.32-0.36,0.64-1.05,0.64-1.05
			S451.08,189.15,448.43,189.8z"/>
		<path class="st7" d="M424.88,244.25c0.47,3.78,0.33,6.02,0.65,8.47c12.09,0.04,28.24-9.33,28.24-9.33L424.88,244.25z"/>
		<path class="st7" d="M453.77,235.45c0,0-18.83-0.56-22-11.26c-3.49-11.76-7.39,4.83-7.39,4.83l2.08,10.59h20.66L453.77,235.45z"/>
		<g>
			<path class="st2" d="M486.59,206.42l-1.02-2.52c-1.09-2.7-3.71-4.47-6.63-4.47h-18.77v11.91v50.84h77.64v-50.84h-43.94
				C490.68,211.34,487.79,209.39,486.59,206.42z"/>
			<g>
				<path class="st9" d="M471.89,237.59v-4.52l15.87-6.95v4.62l-11.08,4.56l11.08,4.56v4.69L471.89,237.59z"/>
				<path class="st9" d="M504.24,220.7h4.23l-14.52,30.35h-4.23L504.24,220.7z"/>
				<path class="st9" d="M526.11,233.06v4.52l-15.87,6.95v-4.62l11.08-4.56l-11.08-4.56v-4.69L526.11,233.06z"/>
			</g>
		</g>
		<path class="st5" d="M453.77,237.93l1.36-2.14c0,0,1.08-0.35,2.59-1.41c1.8-1.26,1.56-3.15,2.46-2.95l0.01,4.16l-0.1,0.01
			c3.86,1.03,8.37-0.09,8.46,0.87c0.25,2.64-1.8,3.83-3.51,4.66c-1.31,0.63-2.8,1.58-5.17,0.85c-1.73-0.54-4.46-1.09-4.46-1.09
			L453.77,237.93z"/>
		<path class="st3" d="M436.35,201.46c0,0-12.22,0.8-15.28,5.57c-3.06,4.77-6.84,28.97-5.26,37.28c1.59,8.31,40.73-1.59,40.73-1.59
			l-1.25-7.21c0,0-22.59,0.13-23.87-2.81C429.71,228.78,436.35,201.46,436.35,201.46z"/>
		<path class="st5" d="M495.35,211.31c-0.11,0.32,1.84,3.52,4.61,2.96c1.73-0.35,3.98-4.07,2-4.89
			C498.67,208.01,495.63,210.46,495.35,211.31z"/>
	</g>
	<g>
		<g>
			
				<rect x="589.13" y="336.54" transform="matrix(0.4709 -0.8822 0.8822 0.4709 40.1138 740.4305)" class="st4" width="96.39" height="0.47"/>
		</g>
		<g>
			
				<rect x="800.46" y="284.25" transform="matrix(0.7334 -0.6798 0.6798 0.7334 -5.2843 630.0793)" class="st4" width="0.47" height="75.06"/>
		</g>
		<g>
			<path class="st0" d="M857.92,365.37c0.76,5.51-0.75,10.83-3.81,14.95c-3.05,4.12-7.63,7.05-13.02,7.79l-228.12,31.35
				c-11.64,1.6-22.41-6.11-23.92-17.14c-0.76-5.51,0.93-10.85,4.27-15.01c3.34-4.16,8.32-7.14,14.14-7.94l228.12-31.35
				C846.35,346.53,856.4,354.34,857.92,365.37z"/>
			<path class="st3" d="M857.92,365.37c0.76,5.51-0.75,10.83-3.81,14.95c-3.05,4.12-7.63,7.05-13.02,7.79l-41.28,5.67l-5.51-40.1
				l41.28-5.67C846.35,346.53,856.4,354.34,857.92,365.37z"/>
			<g>
				<g>
					<path class="st9" d="M832.79,376.25c-0.51,0.07-1.02,0.1-1.55,0.1c-2.75-0.03-5.33-1.13-7.26-3.11
						c-3.97-4.07-3.9-10.61,0.17-14.58l0,0c4.07-3.97,10.61-3.9,14.58,0.17c3.97,4.07,3.9,10.61-0.17,14.58
						C836.98,374.97,834.96,375.95,832.79,376.25z M825.35,359.87c-3.4,3.32-3.46,8.78-0.14,12.18c1.61,1.65,3.76,2.57,6.06,2.59
						c2.3,0.03,4.47-0.84,6.12-2.45c3.4-3.32,3.46-8.78,0.14-12.18C834.21,356.61,828.74,356.55,825.35,359.87L825.35,359.87z"/>
				</g>
				
					<rect x="818.71" y="370.53" transform="matrix(0.6989 0.7152 -0.7152 0.6989 516.8167 -472.485)" class="st9" width="1.7" height="14.07"/>
				<path class="st9" d="M811.03,385.9L811.03,385.9c-0.59-0.6-0.57-1.56,0.02-2.14l5.93-5.79c0.6-0.59,1.56-0.57,2.14,0.02l0,0
					c0.59,0.6,0.57,1.56-0.02,2.14l-5.93,5.79C812.58,386.51,811.62,386.5,811.03,385.9z"/>
			</g>
		</g>
	</g>
	<g>
		<path class="st3" d="M474.45,583.24h-46.9c-1.2,0-2.17-0.97-2.17-2.17l0,0c0-1.2,0.97-2.17,2.17-2.17h46.9
			c1.2,0,2.17,0.97,2.17,2.17v0C476.63,582.27,475.65,583.24,474.45,583.24z"/>
		<g>
			<path class="st4" d="M450.37,598.19h-23.52c-0.82,0-1.48-0.66-1.48-1.48l0,0c0-0.82,0.66-1.48,1.48-1.48h23.52
				c0.82,0,1.48,0.66,1.48,1.48l0,0C451.86,597.53,451.19,598.19,450.37,598.19z"/>
			<g>
				<path class="st4" d="M468.28,591.97h-41.42c-0.82,0-1.48-0.66-1.48-1.48v0c0-0.82,0.66-1.48,1.48-1.48h41.42
					c0.82,0,1.48,0.66,1.48,1.48l0,0C469.76,591.3,469.1,591.97,468.28,591.97z"/>
				<path class="st4" d="M513.77,591.97h-38.48c-0.82,0-1.48-0.66-1.48-1.48v0c0-0.82,0.66-1.48,1.48-1.48h38.48
					c0.82,0,1.48,0.66,1.48,1.48l0,0C515.25,591.3,514.59,591.97,513.77,591.97z"/>
				<path class="st4" d="M479.7,598.19h-23.52c-0.82,0-1.48-0.66-1.48-1.48l0,0c0-0.82,0.66-1.48,1.48-1.48h23.52
					c0.82,0,1.48,0.66,1.48,1.48l0,0C481.19,597.53,480.52,598.19,479.7,598.19z"/>
			</g>
		</g>
		<path class="st3" d="M532.49,583.24h-46.9c-1.2,0-2.17-0.97-2.17-2.17v0c0-1.2,0.97-2.17,2.17-2.17h46.9
			c1.2,0,2.17,0.97,2.17,2.17l0,0C534.66,582.27,533.69,583.24,532.49,583.24z"/>
	</g>
	<g>
		<path class="st3" d="M474.45,615.98h-46.91c-1.2,0-2.17-0.97-2.17-2.17l0,0c0-1.2,0.97-2.17,2.17-2.17h46.9
			c1.2,0,2.17,0.97,2.17,2.17v0C476.63,615.01,475.65,615.98,474.45,615.98z"/>
		<g>
			<path class="st4" d="M450.37,630.93h-23.52c-0.82,0-1.48-0.66-1.48-1.48l0,0c0-0.82,0.66-1.48,1.48-1.48h23.52
				c0.82,0,1.48,0.66,1.48,1.48l0,0C451.86,630.27,451.19,630.93,450.37,630.93z"/>
			<g>
				<path class="st4" d="M468.28,624.71h-41.42c-0.82,0-1.48-0.66-1.48-1.48v0c0-0.82,0.66-1.48,1.48-1.48h41.42
					c0.82,0,1.48,0.66,1.48,1.48l0,0C469.76,624.04,469.1,624.71,468.28,624.71z"/>
				<path class="st4" d="M513.77,624.71h-38.48c-0.82,0-1.48-0.66-1.48-1.48v0c0-0.82,0.66-1.48,1.48-1.48h38.48
					c0.82,0,1.48,0.66,1.48,1.48l0,0C515.25,624.04,514.59,624.71,513.77,624.71z"/>
				<path class="st4" d="M479.7,630.93h-23.52c-0.82,0-1.48-0.66-1.48-1.48l0,0c0-0.82,0.66-1.48,1.48-1.48h23.52
					c0.82,0,1.48,0.66,1.48,1.48l0,0C481.19,630.27,480.52,630.93,479.7,630.93z"/>
			</g>
		</g>
		<path class="st3" d="M532.49,615.98h-46.91c-1.2,0-2.17-0.97-2.17-2.17l0,0c0-1.2,0.97-2.17,2.17-2.17h46.9
			c1.2,0,2.17,0.97,2.17,2.17v0C534.66,615.01,533.69,615.98,532.49,615.98z"/>
	</g>
	<g>
		<polygon class="st6" points="722.56,416.99 695.34,423.32 681.88,447.81 671.6,391.99 		"/>
		
			<rect x="698.08" y="416.52" transform="matrix(0.797 -0.604 0.604 0.797 -118.0526 510.5824)" class="st6" width="4.98" height="28.79"/>
	</g>
	<g>
		<path class="st0" d="M701.55,532.36H641c-4.47,0-8.1-3.63-8.1-8.1v-60.54c0-4.47,3.63-8.1,8.1-8.1h60.54c4.47,0,8.1,3.63,8.1,8.1
			v60.54C709.65,528.74,706.02,532.36,701.55,532.36z"/>
		<g>
			<path class="st7" d="M642.71,516.31l14.91-26.88c1.74-3.13,6.13-3.41,8.25-0.52l8.6,11.73c1.83,2.5,5.49,2.69,7.57,0.41l0,0
				c2.17-2.37,5.99-2.05,7.74,0.64l9.28,14.33c2.11,3.26-0.23,7.57-4.12,7.57H647C643.26,523.6,640.89,519.58,642.71,516.31z"/>
			<path class="st7" d="M672.14,476.86c0-3.24,2.63-5.87,5.87-5.87c3.24,0,5.87,2.63,5.87,5.87c0,3.24-2.63,5.87-5.87,5.87
				C674.76,482.73,672.14,480.1,672.14,476.86z"/>
		</g>
	</g>
	<g>
		<path class="st0" d="M802.92,534.43l-66.32,9.05c-2.68,0.37-5.16-1.51-5.52-4.2l-9.05-66.32c-0.37-2.68,1.51-5.16,4.2-5.52
			l66.32-9.05c2.68-0.37,5.16,1.51,5.52,4.2l9.05,66.32C807.48,531.59,805.6,534.06,802.92,534.43z"/>
		<g>
			<path class="st7" d="M739.28,526.91l11.14-28.65c1.3-3.33,5.61-4.2,8.1-1.63l10.11,10.46c2.15,2.23,5.8,1.93,7.56-0.62l0,0
				c1.83-2.64,5.66-2.84,7.75-0.41l11.13,12.94c2.54,2.95,0.8,7.53-3.06,8.06l-47.5,6.48C740.81,534.05,737.93,530.39,739.28,526.91
				z"/>
			<path class="st7" d="M763.11,483.84c-0.44-3.21,1.81-6.17,5.02-6.61c3.21-0.44,6.17,1.81,6.61,5.02
				c0.44,3.21-1.81,6.17-5.02,6.61C766.51,489.3,763.55,487.05,763.11,483.84z"/>
		</g>
	</g>
	<g>
		<rect x="569.24" y="771.51" class="st3" width="38.68" height="33.16"/>
		<rect x="567.68" y="770.09" class="st6" width="41.55" height="2.56"/>
		<rect x="569.24" y="780.48" class="st6" width="38.68" height="10.53"/>
	</g>
	<path class="st3" d="M654.97,804.69h-36.52c-1.34,0-2.42-1.08-2.42-2.42v-4.05c0-1.44,1.25-2.57,2.69-2.41l36.52,4.05
		c1.23,0.14,2.15,1.17,2.15,2.41l0,0C657.39,803.61,656.31,804.69,654.97,804.69z"/>
	<path class="st10" d="M1165.76,807.97l-1016.73-0.35c-0.68,0-1.24-0.56-1.24-1.24l0-0.63c0-0.68,0.56-1.24,1.24-1.24l1016.73,0.35
		c0.68,0,1.24,0.56,1.24,1.24v0.63C1167,807.42,1166.44,807.97,1165.76,807.97z"/>
	<g>
		<path class="st4" d="M591.18,535.38h-4.21c-0.38,0-0.69-0.31-0.69-0.69s0.31-0.69,0.69-0.69h4.18c0.38,0,0.71,0.31,0.71,0.69
			S591.56,535.38,591.18,535.38z M582.79,535.38h-4.18c-0.38,0-0.69-0.31-0.69-0.69s0.31-0.69,0.69-0.69h4.18
			c0.38,0,0.69,0.31,0.69,0.69S583.17,535.38,582.79,535.38z M574.43,535.38h-4.18c-0.38,0-0.69-0.31-0.69-0.69s0.31-0.69,0.69-0.69
			h4.18c0.38,0,0.69,0.31,0.69,0.69S574.81,535.38,574.43,535.38z M566.07,535.38h-4.18c-0.38,0-0.69-0.31-0.69-0.69
			s0.31-0.69,0.69-0.69h4.18c0.38,0,0.69,0.31,0.69,0.69S566.45,535.38,566.07,535.38z M557.71,535.38h-4.18
			c-0.38,0-0.69-0.31-0.69-0.69s0.31-0.69,0.69-0.69h4.18c0.38,0,0.69,0.31,0.69,0.69S558.09,535.38,557.71,535.38z M549.35,535.38
			h-4.18c-0.38,0-0.69-0.31-0.69-0.69s0.31-0.69,0.69-0.69h4.18c0.38,0,0.69,0.31,0.69,0.69S549.73,535.38,549.35,535.38z
			 M540.99,535.38h-4.18c-0.38,0-0.69-0.31-0.69-0.69s0.31-0.69,0.69-0.69h4.18c0.38,0,0.69,0.31,0.69,0.69
			S541.37,535.38,540.99,535.38z M532.63,535.38h-4.18c-0.38,0-0.69-0.31-0.69-0.69s0.31-0.69,0.69-0.69h4.18
			c0.38,0,0.69,0.31,0.69,0.69S533.01,535.38,532.63,535.38z M524.27,535.38h-4.18c-0.38,0-0.69-0.31-0.69-0.69s0.31-0.69,0.69-0.69
			h4.18c0.38,0,0.69,0.31,0.69,0.69S524.65,535.38,524.27,535.38z M515.91,535.38h-4.18c-0.38,0-0.69-0.31-0.69-0.69
			s0.31-0.69,0.69-0.69h4.18c0.38,0,0.69,0.31,0.69,0.69S516.29,535.38,515.91,535.38z M507.55,535.38h-4.18
			c-0.38,0-0.69-0.31-0.69-0.69s0.31-0.69,0.69-0.69h4.18c0.38,0,0.69,0.31,0.69,0.69S507.93,535.38,507.55,535.38z M499.19,535.38
			h-4.18c-0.38,0-0.69-0.31-0.69-0.69s0.31-0.69,0.69-0.69h4.18c0.38,0,0.69,0.31,0.69,0.69S499.57,535.38,499.19,535.38z
			 M490.83,535.38h-4.18c-0.38,0-0.69-0.31-0.69-0.69s0.31-0.69,0.69-0.69h4.18c0.38,0,0.69,0.31,0.69,0.69
			S491.21,535.38,490.83,535.38z M482.47,535.38h-4.18c-0.38,0-0.69-0.31-0.69-0.69s0.31-0.69,0.69-0.69h4.18
			c0.38,0,0.69,0.31,0.69,0.69S482.85,535.38,482.47,535.38z M474.11,535.38h-4.18c-0.38,0-0.69-0.31-0.69-0.69s0.31-0.69,0.69-0.69
			h4.18c0.38,0,0.69,0.31,0.69,0.69S474.49,535.38,474.11,535.38z M465.75,535.38h-4.18c-0.38,0-0.69-0.31-0.69-0.69
			s0.31-0.69,0.69-0.69h4.18c0.38,0,0.69,0.31,0.69,0.69S466.13,535.38,465.75,535.38z M457.39,535.38h-4.18
			c-0.38,0-0.69-0.31-0.69-0.69s0.31-0.69,0.69-0.69h4.18c0.38,0,0.69,0.31,0.69,0.69S457.77,535.38,457.39,535.38z M449.03,535.38
			h-3.73c-0.17,0-0.33-0.01-0.5-0.02c-0.38-0.02-0.67-0.35-0.65-0.73c0.02-0.38,0.35-0.68,0.73-0.65c0.14,0.01,0.27,0.01,0.41,0.01
			h3.73c0.38,0,0.69,0.31,0.69,0.69S449.41,535.38,449.03,535.38z M595.11,534.16c-0.22,0-0.44-0.11-0.57-0.3
			c-0.21-0.32-0.13-0.75,0.18-0.96c1.05-0.72,1.86-1.72,2.33-2.89c0.14-0.35,0.55-0.52,0.9-0.38c0.35,0.14,0.53,0.55,0.38,0.9
			c-0.58,1.43-1.56,2.65-2.84,3.52C595.38,534.12,595.25,534.16,595.11,534.16z M441,533.91c-0.15,0-0.3-0.05-0.42-0.14
			c-1.23-0.95-2.13-2.22-2.62-3.68c-0.12-0.36,0.07-0.75,0.44-0.88c0.36-0.12,0.75,0.07,0.88,0.44c0.4,1.2,1.15,2.25,2.16,3.03
			c0.3,0.23,0.36,0.67,0.13,0.97C441.41,533.82,441.21,533.91,441,533.91z M598.21,526.84c-0.38,0-0.69-0.31-0.69-0.69v-4.18
			c0-0.38,0.31-0.69,0.69-0.69c0.38,0,0.69,0.31,0.69,0.69v4.18C598.9,526.53,598.59,526.84,598.21,526.84z M438.25,526.42
			c-0.38,0-0.69-0.31-0.69-0.69v-4.18c0-0.38,0.31-0.69,0.69-0.69c0.38,0,0.69,0.31,0.69,0.69v4.18
			C438.94,526.11,438.63,526.42,438.25,526.42z M598.21,518.48c-0.38,0-0.69-0.31-0.69-0.69v-4.18c0-0.38,0.31-0.69,0.69-0.69
			c0.38,0,0.69,0.31,0.69,0.69v4.18C598.9,518.17,598.59,518.48,598.21,518.48z M438.25,518.06c-0.38,0-0.69-0.31-0.69-0.69v-4.18
			c0-0.38,0.31-0.69,0.69-0.69c0.38,0,0.69,0.31,0.69,0.69v4.18C438.94,517.75,438.63,518.06,438.25,518.06z M598.21,510.12
			c-0.38,0-0.69-0.31-0.69-0.69v-4.18c0-0.38,0.31-0.69,0.69-0.69c0.38,0,0.69,0.31,0.69,0.69v4.18
			C598.9,509.81,598.59,510.12,598.21,510.12z M438.25,509.7c-0.38,0-0.69-0.31-0.69-0.69v-4.18c0-0.38,0.31-0.69,0.69-0.69
			c0.38,0,0.69,0.31,0.69,0.69v4.18C438.94,509.39,438.63,509.7,438.25,509.7z M598.21,501.76c-0.38,0-0.69-0.31-0.69-0.69v-4.18
			c0-0.38,0.31-0.69,0.69-0.69c0.38,0,0.69,0.31,0.69,0.69v4.18C598.9,501.45,598.59,501.76,598.21,501.76z M438.25,501.34
			c-0.38,0-0.69-0.31-0.69-0.69v-4.18c0-0.38,0.31-0.69,0.69-0.69c0.38,0,0.69,0.31,0.69,0.69v4.18
			C438.94,501.03,438.63,501.34,438.25,501.34z M598.21,493.4c-0.38,0-0.69-0.31-0.69-0.69v-4.18c0-0.38,0.31-0.69,0.69-0.69
			c0.38,0,0.69,0.31,0.69,0.69v4.18C598.9,493.09,598.59,493.4,598.21,493.4z M438.25,492.98c-0.38,0-0.69-0.31-0.69-0.69v-4.18
			c0-0.38,0.31-0.69,0.69-0.69c0.38,0,0.69,0.31,0.69,0.69v4.18C438.94,492.67,438.63,492.98,438.25,492.98z M598.21,485.04
			c-0.38,0-0.69-0.31-0.69-0.69v-4.18c0-0.38,0.31-0.69,0.69-0.69c0.38,0,0.69,0.31,0.69,0.69v4.18
			C598.9,484.73,598.59,485.04,598.21,485.04z M438.25,484.62c-0.38,0-0.69-0.31-0.69-0.69v-4.18c0-0.38,0.31-0.69,0.69-0.69
			c0.38,0,0.69,0.31,0.69,0.69v4.18C438.94,484.31,438.63,484.62,438.25,484.62z M598.21,476.68c-0.38,0-0.69-0.31-0.69-0.69v-4.18
			c0-0.38,0.31-0.69,0.69-0.69c0.38,0,0.69,0.31,0.69,0.69v4.18C598.9,476.37,598.59,476.68,598.21,476.68z M438.25,476.26
			c-0.38,0-0.69-0.31-0.69-0.69v-4.18c0-0.38,0.31-0.69,0.69-0.69c0.38,0,0.69,0.31,0.69,0.69v4.18
			C438.94,475.95,438.63,476.26,438.25,476.26z M598.21,468.32c-0.38,0-0.69-0.31-0.69-0.69v-4.18c0-0.38,0.31-0.69,0.69-0.69
			c0.38,0,0.69,0.31,0.69,0.69v4.18C598.9,468.01,598.59,468.32,598.21,468.32z M438.25,467.9c-0.38,0-0.69-0.31-0.69-0.69v-4.18
			c0-0.38,0.31-0.69,0.69-0.69c0.38,0,0.69,0.31,0.69,0.69v4.18C438.94,467.59,438.63,467.9,438.25,467.9z M598.21,459.96
			c-0.38,0-0.69-0.31-0.69-0.69v-4.18c0-0.38,0.31-0.69,0.69-0.69c0.38,0,0.69,0.31,0.69,0.69v4.18
			C598.9,459.65,598.59,459.96,598.21,459.96z M438.25,459.54c-0.38,0-0.69-0.31-0.69-0.69v-4.18c0-0.38,0.31-0.69,0.69-0.69
			c0.38,0,0.69,0.31,0.69,0.69v4.18C438.94,459.23,438.63,459.54,438.25,459.54z M598.21,451.6c-0.38,0-0.69-0.31-0.69-0.69v-1.89
			c0-0.7-0.11-1.38-0.33-2.03c-0.12-0.36,0.07-0.75,0.44-0.88c0.36-0.12,0.75,0.07,0.88,0.44c0.27,0.8,0.4,1.63,0.4,2.47v1.89
			C598.9,451.29,598.59,451.6,598.21,451.6z M438.25,451.18c-0.38,0-0.69-0.31-0.69-0.69v-1.46c0-1.01,0.19-1.99,0.57-2.91
			c0.14-0.35,0.55-0.52,0.9-0.38c0.35,0.14,0.52,0.55,0.38,0.9c-0.31,0.76-0.46,1.56-0.46,2.39v1.46
			C438.94,450.87,438.63,451.18,438.25,451.18z M595.45,444.11c-0.15,0-0.3-0.05-0.42-0.14c-1.01-0.77-2.21-1.22-3.48-1.3
			c-0.38-0.02-0.67-0.35-0.65-0.73c0.02-0.38,0.36-0.68,0.73-0.65c1.54,0.09,3.01,0.64,4.24,1.58c0.3,0.23,0.36,0.67,0.13,0.97
			C595.86,444.02,595.65,444.11,595.45,444.11z M441.36,443.87c-0.22,0-0.44-0.11-0.57-0.3c-0.21-0.32-0.13-0.75,0.19-0.96
			c1.28-0.86,2.77-1.32,4.32-1.33c0,0,0,0,0,0c0.38,0,0.69,0.31,0.69,0.69c0,0.38-0.31,0.69-0.69,0.69c-1.27,0-2.5,0.38-3.55,1.09
			C441.63,443.83,441.49,443.87,441.36,443.87z M587.41,442.66h-4.18c-0.38,0-0.69-0.31-0.69-0.69s0.31-0.69,0.69-0.69h4.18
			c0.38,0,0.69,0.31,0.69,0.69S587.79,442.66,587.41,442.66z M579.05,442.66h-4.18c-0.38,0-0.69-0.31-0.69-0.69s0.31-0.69,0.69-0.69
			h4.18c0.38,0,0.69,0.31,0.69,0.69S579.43,442.66,579.05,442.66z M570.69,442.66h-4.18c-0.38,0-0.69-0.31-0.69-0.69
			s0.31-0.69,0.69-0.69h4.18c0.38,0,0.69,0.31,0.69,0.69S571.07,442.66,570.69,442.66z M562.33,442.66h-4.18
			c-0.38,0-0.69-0.31-0.69-0.69s0.31-0.69,0.69-0.69h4.18c0.38,0,0.69,0.31,0.69,0.69S562.71,442.66,562.33,442.66z M553.97,442.66
			h-4.18c-0.38,0-0.69-0.31-0.69-0.69s0.31-0.69,0.69-0.69h4.18c0.38,0,0.69,0.31,0.69,0.69S554.35,442.66,553.97,442.66z
			 M545.61,442.66h-4.18c-0.38,0-0.69-0.31-0.69-0.69s0.31-0.69,0.69-0.69h4.18c0.38,0,0.69,0.31,0.69,0.69
			S545.99,442.66,545.61,442.66z M537.25,442.66h-4.18c-0.38,0-0.69-0.31-0.69-0.69s0.31-0.69,0.69-0.69h4.18
			c0.38,0,0.69,0.31,0.69,0.69S537.63,442.66,537.25,442.66z M528.89,442.66h-4.18c-0.38,0-0.69-0.31-0.69-0.69s0.31-0.69,0.69-0.69
			h4.18c0.38,0,0.69,0.31,0.69,0.69S529.27,442.66,528.89,442.66z M520.53,442.66h-4.18c-0.38,0-0.69-0.31-0.69-0.69
			s0.31-0.69,0.69-0.69h4.18c0.38,0,0.69,0.31,0.69,0.69S520.91,442.66,520.53,442.66z M512.17,442.66h-4.18
			c-0.38,0-0.69-0.31-0.69-0.69s0.31-0.69,0.69-0.69h4.18c0.38,0,0.69,0.31,0.69,0.69S512.55,442.66,512.17,442.66z M503.81,442.66
			h-4.18c-0.38,0-0.69-0.31-0.69-0.69s0.31-0.69,0.69-0.69h4.18c0.38,0,0.69,0.31,0.69,0.69S504.19,442.66,503.81,442.66z
			 M495.45,442.66h-4.18c-0.38,0-0.69-0.31-0.69-0.69s0.31-0.69,0.69-0.69h4.18c0.38,0,0.69,0.31,0.69,0.69
			S495.83,442.66,495.45,442.66z M487.09,442.66h-4.18c-0.38,0-0.69-0.31-0.69-0.69s0.31-0.69,0.69-0.69h4.18
			c0.38,0,0.69,0.31,0.69,0.69S487.47,442.66,487.09,442.66z M478.73,442.66h-4.18c-0.38,0-0.69-0.31-0.69-0.69s0.31-0.69,0.69-0.69
			h4.18c0.38,0,0.69,0.31,0.69,0.69S479.11,442.66,478.73,442.66z M470.37,442.66h-4.18c-0.38,0-0.69-0.31-0.69-0.69
			s0.31-0.69,0.69-0.69h4.18c0.38,0,0.69,0.31,0.69,0.69S470.75,442.66,470.37,442.66z M462.01,442.66h-4.18
			c-0.38,0-0.69-0.31-0.69-0.69s0.31-0.69,0.69-0.69h4.18c0.38,0,0.69,0.31,0.69,0.69S462.39,442.66,462.01,442.66z M453.65,442.66
			h-4.18c-0.38,0-0.69-0.31-0.69-0.69s0.31-0.69,0.69-0.69h4.18c0.38,0,0.69,0.31,0.69,0.69S454.03,442.66,453.65,442.66z"/>
	</g>
	<g>
		<path class="st4" d="M828.79,651.38h-3.73c-0.34,0-0.61-0.27-0.61-0.61s0.27-0.61,0.61-0.61h3.7c0.34,0,0.63,0.27,0.63,0.61
			S829.13,651.38,828.79,651.38z M821.36,651.38h-3.7c-0.34,0-0.61-0.27-0.61-0.61s0.27-0.61,0.61-0.61h3.7
			c0.34,0,0.61,0.27,0.61,0.61S821.7,651.38,821.36,651.38z M813.95,651.38h-3.7c-0.34,0-0.61-0.27-0.61-0.61s0.27-0.61,0.61-0.61
			h3.7c0.34,0,0.61,0.27,0.61,0.61S814.29,651.38,813.95,651.38z M806.55,651.38h-3.7c-0.34,0-0.61-0.27-0.61-0.61
			s0.27-0.61,0.61-0.61h3.7c0.34,0,0.61,0.27,0.61,0.61S806.89,651.38,806.55,651.38z M799.14,651.38h-3.7
			c-0.34,0-0.61-0.27-0.61-0.61s0.27-0.61,0.61-0.61h3.7c0.34,0,0.61,0.27,0.61,0.61S799.48,651.38,799.14,651.38z M791.74,651.38
			h-3.7c-0.34,0-0.61-0.27-0.61-0.61s0.27-0.61,0.61-0.61h3.7c0.34,0,0.61,0.27,0.61,0.61S792.07,651.38,791.74,651.38z
			 M784.33,651.38h-3.7c-0.34,0-0.61-0.27-0.61-0.61s0.27-0.61,0.61-0.61h3.7c0.34,0,0.61,0.27,0.61,0.61
			S784.67,651.38,784.33,651.38z M776.92,651.38h-3.7c-0.34,0-0.61-0.27-0.61-0.61s0.27-0.61,0.61-0.61h3.7
			c0.34,0,0.61,0.27,0.61,0.61S777.26,651.38,776.92,651.38z M769.52,651.38h-3.7c-0.34,0-0.61-0.27-0.61-0.61s0.27-0.61,0.61-0.61
			h3.7c0.34,0,0.61,0.27,0.61,0.61S769.86,651.38,769.52,651.38z M762.11,651.38h-3.58c-0.05,0-0.11,0-0.16,0
			c-0.34-0.02-0.6-0.3-0.58-0.64c0.02-0.34,0.29-0.59,0.64-0.58c0.03,0,0.06,0,0.1,0h3.58c0.34,0,0.61,0.27,0.61,0.61
			S762.45,651.38,762.11,651.38z M831.19,649.04c-0.01,0-0.01,0-0.02,0c-0.34-0.01-0.6-0.29-0.59-0.63l0-0.06v-3.62
			c0-0.34,0.27-0.61,0.61-0.61c0.34,0,0.61,0.27,0.61,0.61l0,3.72C831.79,648.78,831.52,649.04,831.19,649.04z M756.11,648.94
			c-0.34,0-0.61-0.27-0.61-0.61v-3.7c0-0.34,0.27-0.61,0.61-0.61c0.34,0,0.61,0.27,0.61,0.61v3.7
			C756.73,648.66,756.45,648.94,756.11,648.94z M831.19,641.63c-0.34,0-0.61-0.27-0.61-0.61v-3.7c0-0.34,0.27-0.61,0.61-0.61
			c0.34,0,0.61,0.27,0.61,0.61v3.7C831.8,641.36,831.53,641.63,831.19,641.63z M756.11,641.53c-0.34,0-0.61-0.27-0.61-0.61v-3.7
			c0-0.34,0.27-0.61,0.61-0.61c0.34,0,0.61,0.27,0.61,0.61v3.7C756.73,641.26,756.45,641.53,756.11,641.53z M831.19,634.23
			c-0.34,0-0.61-0.27-0.61-0.61v-3.7c0-0.34,0.27-0.61,0.61-0.61c0.34,0,0.61,0.27,0.61,0.61v3.7
			C831.8,633.95,831.53,634.23,831.19,634.23z M756.11,634.13c-0.34,0-0.61-0.27-0.61-0.61v-3.61c0-0.04,0-0.08,0-0.12
			c0.01-0.34,0.29-0.6,0.64-0.59c0.34,0.01,0.6,0.3,0.59,0.64l0,0.07v3.61C756.73,633.85,756.45,634.13,756.11,634.13z
			 M828.88,628.09c-0.01,0-0.02,0-0.03,0l-0.09,0h-3.59c-0.34,0-0.61-0.27-0.61-0.61c0-0.34,0.27-0.61,0.61-0.61h3.59
			c0.05,0,0.09,0,0.14,0c0.34,0.01,0.6,0.3,0.59,0.64C829.48,627.84,829.2,628.09,828.88,628.09z M821.47,628.09h-3.7
			c-0.34,0-0.61-0.27-0.61-0.61c0-0.34,0.27-0.61,0.61-0.61h3.7c0.34,0,0.61,0.27,0.61,0.61
			C822.08,627.82,821.81,628.09,821.47,628.09z M814.07,628.09h-3.7c-0.34,0-0.61-0.27-0.61-0.61c0-0.34,0.27-0.61,0.61-0.61h3.7
			c0.34,0,0.61,0.27,0.61,0.61C814.68,627.82,814.4,628.09,814.07,628.09z M806.66,628.09h-3.7c-0.34,0-0.61-0.27-0.61-0.61
			c0-0.34,0.27-0.61,0.61-0.61h3.7c0.34,0,0.61,0.27,0.61,0.61C807.27,627.82,807,628.09,806.66,628.09z M799.25,628.09h-3.7
			c-0.34,0-0.61-0.27-0.61-0.61c0-0.34,0.27-0.61,0.61-0.61h3.7c0.34,0,0.61,0.27,0.61,0.61
			C799.87,627.82,799.59,628.09,799.25,628.09z M791.85,628.09h-3.7c-0.34,0-0.61-0.27-0.61-0.61c0-0.34,0.27-0.61,0.61-0.61h3.7
			c0.34,0,0.61,0.27,0.61,0.61C792.46,627.82,792.19,628.09,791.85,628.09z M784.44,628.09h-3.7c-0.34,0-0.61-0.27-0.61-0.61
			c0-0.34,0.27-0.61,0.61-0.61h3.7c0.34,0,0.61,0.27,0.61,0.61C785.06,627.82,784.78,628.09,784.44,628.09z M777.04,628.09h-3.7
			c-0.34,0-0.61-0.27-0.61-0.61c0-0.34,0.27-0.61,0.61-0.61h3.7c0.34,0,0.61,0.27,0.61,0.61
			C777.65,627.82,777.38,628.09,777.04,628.09z M769.63,628.09h-3.7c-0.34,0-0.61-0.27-0.61-0.61c0-0.34,0.27-0.61,0.61-0.61h3.7
			c0.34,0,0.61,0.27,0.61,0.61C770.24,627.82,769.97,628.09,769.63,628.09z M762.23,628.09h-3.69c-0.34,0-0.62-0.27-0.62-0.61
			c0-0.34,0.27-0.61,0.61-0.61h3.7c0.34,0,0.61,0.27,0.61,0.61C762.84,627.82,762.56,628.09,762.23,628.09z"/>
	</g>
	<g>
		<path class="st4" d="M564.3,430.4h-4.12c-0.38,0-0.69-0.31-0.69-0.69c0-0.38,0.31-0.69,0.69-0.69h4.1c0.38,0,0.7,0.31,0.7,0.69
			C564.98,430.09,564.69,430.4,564.3,430.4z M556.08,430.4h-4.1c-0.38,0-0.69-0.31-0.69-0.69c0-0.38,0.31-0.69,0.69-0.69h4.1
			c0.38,0,0.69,0.31,0.69,0.69C556.78,430.09,556.47,430.4,556.08,430.4z M547.89,430.4h-4.1c-0.38,0-0.69-0.31-0.69-0.69
			c0-0.38,0.31-0.69,0.69-0.69h4.1c0.38,0,0.69,0.31,0.69,0.69C548.58,430.09,548.27,430.4,547.89,430.4z M539.69,430.4h-4.1
			c-0.38,0-0.69-0.31-0.69-0.69c0-0.38,0.31-0.69,0.69-0.69h4.1c0.38,0,0.69,0.31,0.69,0.69
			C540.39,430.09,540.08,430.4,539.69,430.4z M531.5,430.4h-4.1c-0.38,0-0.69-0.31-0.69-0.69c0-0.38,0.31-0.69,0.69-0.69h4.1
			c0.38,0,0.69,0.31,0.69,0.69C532.19,430.09,531.88,430.4,531.5,430.4z M523.3,430.4h-4.1c-0.38,0-0.69-0.31-0.69-0.69
			c0-0.38,0.31-0.69,0.69-0.69h4.1c0.38,0,0.69,0.31,0.69,0.69C524,430.09,523.69,430.4,523.3,430.4z M515.11,430.4h-4.1
			c-0.38,0-0.69-0.31-0.69-0.69c0-0.38,0.31-0.69,0.69-0.69h4.1c0.38,0,0.69,0.31,0.69,0.69C515.8,430.09,515.49,430.4,515.11,430.4
			z M506.99,429.96c-0.12,0-0.23-0.03-0.34-0.09c-1.28-0.73-2.08-2.09-2.08-3.57v-0.5c0-0.38,0.31-0.69,0.69-0.69
			c0.38,0,0.69,0.31,0.69,0.69v0.5c0,0.97,0.53,1.88,1.38,2.36c0.33,0.19,0.45,0.61,0.26,0.94
			C507.46,429.84,507.23,429.96,506.99,429.96z M567.46,428.2c-0.08,0-0.16-0.01-0.24-0.04c-0.36-0.13-0.54-0.53-0.4-0.89
			c0.11-0.3,0.17-0.63,0.17-0.96v-2.87c0-0.38,0.31-0.69,0.69-0.69s0.69,0.31,0.69,0.69v2.87c0,0.5-0.09,0.98-0.26,1.44
			C568.01,428.03,567.74,428.2,567.46,428.2z M505.26,422.4c-0.38,0-0.69-0.31-0.69-0.69v-4.1c0-0.38,0.31-0.69,0.69-0.69
			c0.38,0,0.69,0.31,0.69,0.69v4.1C505.96,422.09,505.65,422.4,505.26,422.4z M567.68,420.03c-0.38,0-0.69-0.31-0.69-0.69v-4.1
			c0-0.38,0.31-0.69,0.69-0.69s0.69,0.31,0.69,0.69v4.1C568.37,419.72,568.06,420.03,567.68,420.03z M505.26,414.21
			c-0.38,0-0.69-0.31-0.69-0.69v-4.1c0-0.38,0.31-0.69,0.69-0.69c0.38,0,0.69,0.31,0.69,0.69v4.1
			C505.96,413.9,505.65,414.21,505.26,414.21z M567.68,411.84c-0.38,0-0.69-0.31-0.69-0.69v-4.1c0-0.38,0.31-0.69,0.69-0.69
			s0.69,0.31,0.69,0.69v4.1C568.37,411.53,568.06,411.84,567.68,411.84z M505.26,406.01c-0.38,0-0.69-0.31-0.69-0.69v-4.1
			c0-0.38,0.31-0.69,0.69-0.69c0.38,0,0.69,0.31,0.69,0.69v4.1C505.96,405.7,505.65,406.01,505.26,406.01z M567.68,403.64
			c-0.38,0-0.69-0.31-0.69-0.69v-4.1c0-0.38,0.31-0.69,0.69-0.69s0.69,0.31,0.69,0.69v4.1
			C568.37,403.33,568.06,403.64,567.68,403.64z M505.26,397.81c-0.38,0-0.69-0.31-0.69-0.69v-4.1c0-0.38,0.31-0.69,0.69-0.69
			c0.38,0,0.69,0.31,0.69,0.69v4.1C505.96,397.51,505.65,397.81,505.26,397.81z M567.68,395.45c-0.38,0-0.69-0.31-0.69-0.69v-4.1
			c0-0.38,0.31-0.69,0.69-0.69s0.69,0.31,0.69,0.69v4.1C568.37,395.14,568.06,395.45,567.68,395.45z M505.26,389.62
			c-0.38,0-0.69-0.31-0.69-0.69v-4.1c0-0.38,0.31-0.69,0.69-0.69c0.38,0,0.69,0.31,0.69,0.69v4.1
			C505.96,389.31,505.65,389.62,505.26,389.62z M567.68,387.25c-0.38,0-0.69-0.31-0.69-0.69v-4.1c0-0.38,0.31-0.69,0.69-0.69
			s0.69,0.31,0.69,0.69v4.1C568.37,386.94,568.06,387.25,567.68,387.25z M505.26,381.42c-0.38,0-0.69-0.31-0.69-0.69v-2.86
			c0-0.5,0.09-0.99,0.27-1.46c0.14-0.36,0.53-0.54,0.89-0.4c0.36,0.14,0.54,0.54,0.4,0.89c-0.12,0.31-0.18,0.63-0.18,0.96v2.86
			C505.96,381.11,505.65,381.42,505.26,381.42z M567.68,379.06c-0.38,0-0.69-0.31-0.69-0.69v-0.49c0-0.98-0.53-1.89-1.39-2.37
			c-0.33-0.19-0.45-0.61-0.26-0.94c0.19-0.33,0.61-0.45,0.94-0.26c1.29,0.73,2.09,2.09,2.09,3.57v0.49
			C568.37,378.75,568.06,379.06,567.68,379.06z M561.92,375.16h-4.1c-0.38,0-0.69-0.31-0.69-0.69c0-0.38,0.31-0.69,0.69-0.69h4.1
			c0.38,0,0.69,0.31,0.69,0.69C562.61,374.85,562.3,375.16,561.92,375.16z M553.73,375.16h-4.1c-0.38,0-0.69-0.31-0.69-0.69
			c0-0.38,0.31-0.69,0.69-0.69h4.1c0.38,0,0.69,0.31,0.69,0.69C554.42,374.85,554.11,375.16,553.73,375.16z M545.53,375.16h-4.1
			c-0.38,0-0.69-0.31-0.69-0.69c0-0.38,0.31-0.69,0.69-0.69h4.1c0.38,0,0.69,0.31,0.69,0.69
			C546.22,374.85,545.91,375.16,545.53,375.16z M537.34,375.16h-4.1c-0.38,0-0.69-0.31-0.69-0.69c0-0.38,0.31-0.69,0.69-0.69h4.1
			c0.38,0,0.69,0.31,0.69,0.69C538.03,374.85,537.72,375.16,537.34,375.16z M529.14,375.16h-4.1c-0.38,0-0.69-0.31-0.69-0.69
			c0-0.38,0.31-0.69,0.69-0.69h4.1c0.38,0,0.69,0.31,0.69,0.69C529.83,374.85,529.52,375.16,529.14,375.16z M520.95,375.16h-4.1
			c-0.38,0-0.69-0.31-0.69-0.69c0-0.38,0.31-0.69,0.69-0.69h4.1c0.38,0,0.69,0.31,0.69,0.69
			C521.64,374.85,521.33,375.16,520.95,375.16z M512.75,375.16h-4.08c-0.38,0-0.7-0.31-0.7-0.69c0-0.38,0.3-0.69,0.69-0.69h4.1
			c0.38,0,0.69,0.31,0.69,0.69C513.44,374.85,513.13,375.16,512.75,375.16z"/>
	</g>
	<g>
		<path class="st4" d="M828.79,685.56h-3.73c-0.34,0-0.61-0.27-0.61-0.61c0-0.34,0.27-0.61,0.61-0.61h3.7
			c0.34,0,0.63,0.27,0.63,0.61C829.39,685.28,829.13,685.56,828.79,685.56z M821.36,685.56h-3.7c-0.34,0-0.61-0.27-0.61-0.61
			c0-0.34,0.27-0.61,0.61-0.61h3.7c0.34,0,0.61,0.27,0.61,0.61C821.97,685.28,821.7,685.56,821.36,685.56z M813.95,685.56h-3.7
			c-0.34,0-0.61-0.27-0.61-0.61c0-0.34,0.27-0.61,0.61-0.61h3.7c0.34,0,0.61,0.27,0.61,0.61
			C814.57,685.28,814.29,685.56,813.95,685.56z M806.55,685.56h-3.7c-0.34,0-0.61-0.27-0.61-0.61c0-0.34,0.27-0.61,0.61-0.61h3.7
			c0.34,0,0.61,0.27,0.61,0.61C807.16,685.28,806.89,685.56,806.55,685.56z M799.14,685.56h-3.7c-0.34,0-0.61-0.27-0.61-0.61
			c0-0.34,0.27-0.61,0.61-0.61h3.7c0.34,0,0.61,0.27,0.61,0.61C799.75,685.28,799.48,685.56,799.14,685.56z M791.74,685.56h-3.7
			c-0.34,0-0.61-0.27-0.61-0.61c0-0.34,0.27-0.61,0.61-0.61h3.7c0.34,0,0.61,0.27,0.61,0.61
			C792.35,685.28,792.07,685.56,791.74,685.56z M784.33,685.56h-3.7c-0.34,0-0.61-0.27-0.61-0.61c0-0.34,0.27-0.61,0.61-0.61h3.7
			c0.34,0,0.61,0.27,0.61,0.61C784.94,685.28,784.67,685.56,784.33,685.56z M776.92,685.56h-3.7c-0.34,0-0.61-0.27-0.61-0.61
			c0-0.34,0.27-0.61,0.61-0.61h3.7c0.34,0,0.61,0.27,0.61,0.61C777.54,685.28,777.26,685.56,776.92,685.56z M769.52,685.56h-3.7
			c-0.34,0-0.61-0.27-0.61-0.61c0-0.34,0.27-0.61,0.61-0.61h3.7c0.34,0,0.61,0.27,0.61,0.61
			C770.13,685.28,769.86,685.56,769.52,685.56z M762.11,685.56h-3.58c-0.05,0-0.11,0-0.16,0c-0.34-0.02-0.6-0.3-0.58-0.64
			c0.02-0.34,0.29-0.6,0.64-0.58c0.03,0,0.06,0,0.1,0h3.58c0.34,0,0.61,0.27,0.61,0.61C762.73,685.28,762.45,685.56,762.11,685.56z
			 M831.19,683.21c-0.01,0-0.01,0-0.02,0c-0.34-0.01-0.6-0.29-0.59-0.63l0-0.06v-3.62c0-0.34,0.27-0.61,0.61-0.61
			c0.34,0,0.61,0.27,0.61,0.61l0,3.72C831.79,682.95,831.52,683.21,831.19,683.21z M756.11,683.11c-0.34,0-0.61-0.27-0.61-0.61v-3.7
			c0-0.34,0.27-0.61,0.61-0.61c0.34,0,0.61,0.27,0.61,0.61v3.7C756.73,682.84,756.45,683.11,756.11,683.11z M831.19,675.81
			c-0.34,0-0.61-0.27-0.61-0.61v-3.7c0-0.34,0.27-0.61,0.61-0.61c0.34,0,0.61,0.27,0.61,0.61v3.7
			C831.8,675.53,831.53,675.81,831.19,675.81z M756.11,675.71c-0.34,0-0.61-0.27-0.61-0.61v-3.7c0-0.34,0.27-0.61,0.61-0.61
			c0.34,0,0.61,0.27,0.61,0.61v3.7C756.73,675.43,756.45,675.71,756.11,675.71z M831.19,668.4c-0.34,0-0.61-0.27-0.61-0.61v-3.7
			c0-0.34,0.27-0.61,0.61-0.61c0.34,0,0.61,0.27,0.61,0.61v3.7C831.8,668.13,831.53,668.4,831.19,668.4z M756.11,668.3
			c-0.34,0-0.61-0.27-0.61-0.61v-3.61c0-0.04,0-0.08,0-0.12c0.01-0.34,0.29-0.6,0.64-0.59c0.34,0.01,0.6,0.3,0.59,0.64l0,0.07v3.61
			C756.73,668.03,756.45,668.3,756.11,668.3z M828.88,662.27c-0.01,0-0.02,0-0.03,0l-0.09,0h-3.59c-0.34,0-0.61-0.27-0.61-0.61
			s0.27-0.61,0.61-0.61h3.59c0.05,0,0.09,0,0.14,0c0.34,0.01,0.6,0.3,0.59,0.64C829.48,662.01,829.2,662.27,828.88,662.27z
			 M821.47,662.27h-3.7c-0.34,0-0.61-0.27-0.61-0.61s0.27-0.61,0.61-0.61h3.7c0.34,0,0.61,0.27,0.61,0.61
			S821.81,662.27,821.47,662.27z M814.07,662.27h-3.7c-0.34,0-0.61-0.27-0.61-0.61s0.27-0.61,0.61-0.61h3.7
			c0.34,0,0.61,0.27,0.61,0.61S814.4,662.27,814.07,662.27z M806.66,662.27h-3.7c-0.34,0-0.61-0.27-0.61-0.61s0.27-0.61,0.61-0.61
			h3.7c0.34,0,0.61,0.27,0.61,0.61S807,662.27,806.66,662.27z M799.25,662.27h-3.7c-0.34,0-0.61-0.27-0.61-0.61s0.27-0.61,0.61-0.61
			h3.7c0.34,0,0.61,0.27,0.61,0.61S799.59,662.27,799.25,662.27z M791.85,662.27h-3.7c-0.34,0-0.61-0.27-0.61-0.61
			s0.27-0.61,0.61-0.61h3.7c0.34,0,0.61,0.27,0.61,0.61S792.19,662.27,791.85,662.27z M784.44,662.27h-3.7
			c-0.34,0-0.61-0.27-0.61-0.61s0.27-0.61,0.61-0.61h3.7c0.34,0,0.61,0.27,0.61,0.61S784.78,662.27,784.44,662.27z M777.04,662.27
			h-3.7c-0.34,0-0.61-0.27-0.61-0.61s0.27-0.61,0.61-0.61h3.7c0.34,0,0.61,0.27,0.61,0.61S777.38,662.27,777.04,662.27z
			 M769.63,662.27h-3.7c-0.34,0-0.61-0.27-0.61-0.61s0.27-0.61,0.61-0.61h3.7c0.34,0,0.61,0.27,0.61,0.61
			S769.97,662.27,769.63,662.27z M762.23,662.27h-3.69c-0.34,0-0.62-0.27-0.62-0.61s0.27-0.61,0.61-0.61h3.7
			c0.34,0,0.61,0.27,0.61,0.61S762.56,662.27,762.23,662.27z"/>
	</g>
	<g>
		<path class="st4" d="M536.57,659.81h-3.7c-0.34,0-0.61-0.27-0.61-0.61c0-0.34,0.27-0.61,0.61-0.61h3.67
			c0.34,0,0.63,0.27,0.63,0.61C537.17,659.54,536.91,659.81,536.57,659.81z M529.2,659.81h-3.67c-0.34,0-0.61-0.27-0.61-0.61
			c0-0.34,0.27-0.61,0.61-0.61h3.67c0.34,0,0.61,0.27,0.61,0.61C529.82,659.54,529.54,659.81,529.2,659.81z M521.86,659.81h-3.67
			c-0.34,0-0.61-0.27-0.61-0.61c0-0.34,0.27-0.61,0.61-0.61h3.67c0.34,0,0.61,0.27,0.61,0.61
			C522.48,659.54,522.2,659.81,521.86,659.81z M514.52,659.81h-3.67c-0.34,0-0.61-0.27-0.61-0.61c0-0.34,0.27-0.61,0.61-0.61h3.67
			c0.34,0,0.61,0.27,0.61,0.61C515.13,659.54,514.86,659.81,514.52,659.81z M507.18,659.81h-3.67c-0.34,0-0.61-0.27-0.61-0.61
			c0-0.34,0.27-0.61,0.61-0.61h3.67c0.34,0,0.61,0.27,0.61,0.61C507.79,659.54,507.52,659.81,507.18,659.81z M499.84,659.81h-3.67
			c-0.34,0-0.61-0.27-0.61-0.61c0-0.34,0.27-0.61,0.61-0.61h3.67c0.34,0,0.61,0.27,0.61,0.61
			C500.45,659.54,500.18,659.81,499.84,659.81z M492.5,659.81h-3.67c-0.34,0-0.61-0.27-0.61-0.61c0-0.34,0.27-0.61,0.61-0.61h3.67
			c0.34,0,0.61,0.27,0.61,0.61C493.11,659.54,492.83,659.81,492.5,659.81z M485.15,659.81h-3.67c-0.34,0-0.61-0.27-0.61-0.61
			c0-0.34,0.27-0.61,0.61-0.61h3.67c0.34,0,0.61,0.27,0.61,0.61C485.77,659.54,485.49,659.81,485.15,659.81z M477.81,659.81h-3.67
			c-0.34,0-0.61-0.27-0.61-0.61c0-0.34,0.27-0.61,0.61-0.61h3.67c0.34,0,0.61,0.27,0.61,0.61
			C478.42,659.54,478.15,659.81,477.81,659.81z M470.47,659.81h-3.67c-0.34,0-0.61-0.27-0.61-0.61c0-0.34,0.27-0.61,0.61-0.61h3.67
			c0.34,0,0.61,0.27,0.61,0.61C471.08,659.54,470.81,659.81,470.47,659.81z M463.13,659.81h-3.67c-0.34,0-0.61-0.27-0.61-0.61
			c0-0.34,0.27-0.61,0.61-0.61h3.67c0.34,0,0.61,0.27,0.61,0.61C463.74,659.54,463.47,659.81,463.13,659.81z M455.79,659.81h-3.67
			c-0.34,0-0.61-0.27-0.61-0.61c0-0.34,0.27-0.61,0.61-0.61h3.67c0.34,0,0.61,0.27,0.61,0.61
			C456.4,659.54,456.12,659.81,455.79,659.81z M448.44,659.81h-3.67c-0.34,0-0.61-0.27-0.61-0.61c0-0.34,0.27-0.61,0.61-0.61h3.67
			c0.34,0,0.61,0.27,0.61,0.61C449.06,659.54,448.78,659.81,448.44,659.81z M441.1,659.81h-3.67c-0.34,0-0.61-0.27-0.61-0.61
			c0-0.34,0.27-0.61,0.61-0.61h3.67c0.34,0,0.61,0.27,0.61,0.61C441.72,659.54,441.44,659.81,441.1,659.81z M433.76,659.81h-3.67
			c-0.34,0-0.61-0.27-0.61-0.61c0-0.34,0.27-0.61,0.61-0.61h3.67c0.34,0,0.61,0.27,0.61,0.61
			C434.37,659.54,434.1,659.81,433.76,659.81z M426.42,659.81h-2.93c-0.27,0-0.54-0.02-0.81-0.05c-0.34-0.04-0.58-0.34-0.54-0.68
			c0.04-0.34,0.35-0.58,0.68-0.54c0.22,0.03,0.44,0.04,0.67,0.04h2.93c0.34,0,0.61,0.27,0.61,0.61
			C427.03,659.54,426.76,659.81,426.42,659.81z M540.03,658.75c-0.2,0-0.39-0.1-0.51-0.27c-0.19-0.28-0.11-0.66,0.17-0.85
			c0.93-0.62,1.64-1.5,2.07-2.52c0.13-0.31,0.49-0.46,0.8-0.33c0.31,0.13,0.46,0.49,0.33,0.8c-0.52,1.25-1.39,2.31-2.52,3.07
			C540.27,658.72,540.15,658.75,540.03,658.75z M419.43,658.32c-0.14,0-0.28-0.05-0.4-0.15c-1.04-0.88-1.78-2.04-2.15-3.34
			c-0.09-0.33,0.1-0.67,0.42-0.76c0.33-0.09,0.66,0.09,0.76,0.42c0.31,1.07,0.92,2.02,1.77,2.74c0.26,0.22,0.29,0.61,0.07,0.86
			C419.78,658.25,419.61,658.32,419.43,658.32z M542.8,652.35c-0.34,0-0.61-0.27-0.61-0.61v-3.67c0-0.34,0.27-0.61,0.61-0.61
			c0.34,0,0.61,0.27,0.61,0.61v3.67C543.41,652.07,543.14,652.35,542.8,652.35z M417.23,651.63c-0.34,0-0.61-0.27-0.61-0.61v-3.67
			c0-0.34,0.27-0.61,0.61-0.61c0.34,0,0.61,0.27,0.61,0.61v3.67C417.85,651.36,417.57,651.63,417.23,651.63z M542.8,645.01
			c-0.34,0-0.61-0.27-0.61-0.61v-3.67c0-0.34,0.27-0.61,0.61-0.61c0.34,0,0.61,0.27,0.61,0.61v3.67
			C543.41,644.73,543.14,645.01,542.8,645.01z M417.23,644.29c-0.34,0-0.61-0.27-0.61-0.61v-3.67c0-0.34,0.27-0.61,0.61-0.61
			c0.34,0,0.61,0.27,0.61,0.61v3.67C417.85,644.02,417.57,644.29,417.23,644.29z M542.8,637.66c-0.34,0-0.61-0.27-0.61-0.61v-3.67
			c0-0.34,0.27-0.61,0.61-0.61c0.34,0,0.61,0.27,0.61,0.61v3.67C543.41,637.39,543.14,637.66,542.8,637.66z M417.23,636.95
			c-0.34,0-0.61-0.27-0.61-0.61v-3.67c0-0.34,0.27-0.61,0.61-0.61c0.34,0,0.61,0.27,0.61,0.61v3.67
			C417.85,636.67,417.57,636.95,417.23,636.95z M542.8,630.32c-0.34,0-0.61-0.27-0.61-0.61v-3.67c0-0.34,0.27-0.61,0.61-0.61
			c0.34,0,0.61,0.27,0.61,0.61v3.67C543.41,630.05,543.14,630.32,542.8,630.32z M417.23,629.61c-0.34,0-0.61-0.27-0.61-0.61v-3.67
			c0-0.34,0.27-0.61,0.61-0.61c0.34,0,0.61,0.27,0.61,0.61v3.67C417.85,629.33,417.57,629.61,417.23,629.61z M542.8,622.98
			c-0.34,0-0.61-0.27-0.61-0.61v-3.67c0-0.34,0.27-0.61,0.61-0.61c0.34,0,0.61,0.27,0.61,0.61v3.67
			C543.41,622.71,543.14,622.98,542.8,622.98z M417.23,622.27c-0.34,0-0.61-0.27-0.61-0.61v-3.67c0-0.34,0.27-0.61,0.61-0.61
			c0.34,0,0.61,0.27,0.61,0.61v3.67C417.85,621.99,417.57,622.27,417.23,622.27z M542.8,615.64c-0.34,0-0.61-0.27-0.61-0.61v-3.67
			c0-0.34,0.27-0.61,0.61-0.61c0.34,0,0.61,0.27,0.61,0.61v3.67C543.41,615.36,543.14,615.64,542.8,615.64z M417.23,614.92
			c-0.34,0-0.61-0.27-0.61-0.61v-3.67c0-0.34,0.27-0.61,0.61-0.61c0.34,0,0.61,0.27,0.61,0.61v3.67
			C417.85,614.65,417.57,614.92,417.23,614.92z M542.8,608.3c-0.34,0-0.61-0.27-0.61-0.61v-3.67c0-0.34,0.27-0.61,0.61-0.61
			c0.34,0,0.61,0.27,0.61,0.61v3.67C543.41,608.02,543.14,608.3,542.8,608.3z M417.23,607.58c-0.34,0-0.61-0.27-0.61-0.61v-3.67
			c0-0.34,0.27-0.61,0.61-0.61c0.34,0,0.61,0.27,0.61,0.61v3.67C417.85,607.31,417.57,607.58,417.23,607.58z M542.8,600.96
			c-0.34,0-0.61-0.27-0.61-0.61v-3.67c0-0.34,0.27-0.61,0.61-0.61c0.34,0,0.61,0.27,0.61,0.61v3.67
			C543.41,600.68,543.14,600.96,542.8,600.96z M417.23,600.24c-0.34,0-0.61-0.27-0.61-0.61v-3.67c0-0.34,0.27-0.61,0.61-0.61
			c0.34,0,0.61,0.27,0.61,0.61v3.67C417.85,599.97,417.57,600.24,417.23,600.24z M542.8,593.61c-0.34,0-0.61-0.27-0.61-0.61v-3.67
			c0-0.34,0.27-0.61,0.61-0.61c0.34,0,0.61,0.27,0.61,0.61V593C543.41,593.34,543.14,593.61,542.8,593.61z M417.23,592.9
			c-0.34,0-0.61-0.27-0.61-0.61v-3.67c0-0.34,0.27-0.61,0.61-0.61c0.34,0,0.61,0.27,0.61,0.61v3.67
			C417.85,592.62,417.57,592.9,417.23,592.9z M542.8,586.27c-0.34,0-0.61-0.27-0.61-0.61v-3.67c0-0.34,0.27-0.61,0.61-0.61
			c0.34,0,0.61,0.27,0.61,0.61v3.67C543.41,586,543.14,586.27,542.8,586.27z M417.23,585.56c-0.34,0-0.61-0.27-0.61-0.61v-3.67
			c0-0.34,0.27-0.61,0.61-0.61c0.34,0,0.61,0.27,0.61,0.61v3.67C417.85,585.28,417.57,585.56,417.23,585.56z M542.8,578.93
			c-0.34,0-0.61-0.27-0.61-0.61v-3.67c0-0.34,0.27-0.61,0.61-0.61c0.34,0,0.61,0.27,0.61,0.61v3.67
			C543.41,578.66,543.14,578.93,542.8,578.93z M417.23,578.21c-0.34,0-0.61-0.27-0.61-0.61v-3.67c0-0.34,0.27-0.61,0.61-0.61
			c0.34,0,0.61,0.27,0.61,0.61v3.67C417.85,577.94,417.57,578.21,417.23,578.21z M542.56,571.61c-0.27,0-0.51-0.17-0.59-0.44
			c-0.31-1.07-0.92-2.02-1.77-2.74c-0.26-0.22-0.29-0.61-0.07-0.86c0.22-0.26,0.61-0.29,0.86-0.07c1.04,0.88,1.78,2.03,2.16,3.33
			c0.09,0.33-0.09,0.67-0.42,0.76C542.67,571.6,542.61,571.61,542.56,571.61z M417.71,570.94c-0.08,0-0.16-0.02-0.24-0.05
			c-0.31-0.13-0.46-0.49-0.33-0.8c0.52-1.25,1.4-2.31,2.53-3.07c0.28-0.19,0.66-0.11,0.85,0.17c0.19,0.28,0.11,0.66-0.17,0.85
			c-0.93,0.62-1.65,1.49-2.08,2.52C418.18,570.8,417.95,570.94,417.71,570.94z M537.27,567.13c-0.02,0-0.05,0-0.07,0
			c-0.22-0.02-0.44-0.04-0.66-0.04h-2.94c-0.34,0-0.61-0.27-0.61-0.61s0.27-0.61,0.61-0.61h2.94c0.27,0,0.53,0.02,0.8,0.05
			c0.34,0.04,0.58,0.34,0.54,0.68C537.85,566.9,537.58,567.13,537.27,567.13z M529.93,567.09h-3.67c-0.34,0-0.61-0.27-0.61-0.61
			s0.27-0.61,0.61-0.61h3.67c0.34,0,0.61,0.27,0.61,0.61S530.27,567.09,529.93,567.09z M522.59,567.09h-3.67
			c-0.34,0-0.61-0.27-0.61-0.61s0.27-0.61,0.61-0.61h3.67c0.34,0,0.61,0.27,0.61,0.61S522.93,567.09,522.59,567.09z M515.25,567.09
			h-3.67c-0.34,0-0.61-0.27-0.61-0.61s0.27-0.61,0.61-0.61h3.67c0.34,0,0.61,0.27,0.61,0.61S515.59,567.09,515.25,567.09z
			 M507.91,567.09h-3.67c-0.34,0-0.61-0.27-0.61-0.61s0.27-0.61,0.61-0.61h3.67c0.34,0,0.61,0.27,0.61,0.61
			S508.25,567.09,507.91,567.09z M500.57,567.09h-3.67c-0.34,0-0.61-0.27-0.61-0.61s0.27-0.61,0.61-0.61h3.67
			c0.34,0,0.61,0.27,0.61,0.61S500.9,567.09,500.57,567.09z M493.22,567.09h-3.67c-0.34,0-0.61-0.27-0.61-0.61s0.27-0.61,0.61-0.61
			h3.67c0.34,0,0.61,0.27,0.61,0.61S493.56,567.09,493.22,567.09z M485.88,567.09h-3.67c-0.34,0-0.61-0.27-0.61-0.61
			s0.27-0.61,0.61-0.61h3.67c0.34,0,0.61,0.27,0.61,0.61S486.22,567.09,485.88,567.09z M478.54,567.09h-3.67
			c-0.34,0-0.61-0.27-0.61-0.61s0.27-0.61,0.61-0.61h3.67c0.34,0,0.61,0.27,0.61,0.61S478.88,567.09,478.54,567.09z M471.2,567.09
			h-3.67c-0.34,0-0.61-0.27-0.61-0.61s0.27-0.61,0.61-0.61h3.67c0.34,0,0.61,0.27,0.61,0.61S471.54,567.09,471.2,567.09z
			 M463.86,567.09h-3.67c-0.34,0-0.61-0.27-0.61-0.61s0.27-0.61,0.61-0.61h3.67c0.34,0,0.61,0.27,0.61,0.61
			S464.19,567.09,463.86,567.09z M456.51,567.09h-3.67c-0.34,0-0.61-0.27-0.61-0.61s0.27-0.61,0.61-0.61h3.67
			c0.34,0,0.61,0.27,0.61,0.61S456.85,567.09,456.51,567.09z M449.17,567.09h-3.67c-0.34,0-0.61-0.27-0.61-0.61s0.27-0.61,0.61-0.61
			h3.67c0.34,0,0.61,0.27,0.61,0.61S449.51,567.09,449.17,567.09z M441.83,567.09h-3.67c-0.34,0-0.61-0.27-0.61-0.61
			s0.27-0.61,0.61-0.61h3.67c0.34,0,0.61,0.27,0.61,0.61S442.17,567.09,441.83,567.09z M434.49,567.09h-3.67
			c-0.34,0-0.61-0.27-0.61-0.61s0.27-0.61,0.61-0.61h3.67c0.34,0,0.61,0.27,0.61,0.61S434.83,567.09,434.49,567.09z M427.15,567.09
			h-3.66c-0.34,0-0.62-0.27-0.62-0.61s0.27-0.61,0.61-0.61h3.67c0.34,0,0.61,0.27,0.61,0.61S427.49,567.09,427.15,567.09z"/>
	</g>
	<g>
		<path class="st0" d="M568.48,547.29H427.66c-5.29,0-9.57-4.29-9.57-9.57v-73.57c0-5.29,4.29-9.57,9.57-9.57h140.82
			c5.29,0,9.57,4.29,9.57,9.57v73.57C578.05,543.01,573.76,547.29,568.48,547.29z"/>
		<path class="st3" d="M480.02,482.54v36.78c0,2.3,2.56,3.68,4.48,2.41l27.95-18.39c1.74-1.14,1.74-3.69,0-4.83l-27.95-18.39
			C482.57,478.86,480.02,480.24,480.02,482.54z"/>
		<g>
			<path class="st11" d="M426.4,538.93c0-1.59,1.29-2.87,2.87-2.87c1.59,0,2.87,1.29,2.87,2.87c0,1.59-1.29,2.87-2.87,2.87
				C427.69,541.8,426.4,540.52,426.4,538.93z"/>
			<path class="st11" d="M559.89,539.7H430.05c-0.43,0-0.77-0.35-0.77-0.77l0,0c0-0.43,0.35-0.77,0.77-0.77h129.85
				c0.43,0,0.77,0.35,0.77,0.77l0,0C560.67,539.36,560.32,539.7,559.89,539.7z"/>
		</g>
	</g>
	<rect x="567.68" y="566.48" class="st0" width="82.76" height="123.54"/>
	<g>
		<g>
			<g>
				<path class="st6" d="M617.01,606.17h-1.13v-5.09c0-1.83,1.49-3.31,3.31-3.31h14c0.99,0,1.86-0.67,2.11-1.63l2.21-8.42
					c0.17-0.66,0.03-1.35-0.38-1.88c-0.42-0.54-1.04-0.85-1.73-0.85h-18.27v-1.13h18.27c1.03,0,1.99,0.47,2.62,1.29
					c0.63,0.82,0.84,1.86,0.58,2.86l-2.21,8.42c-0.38,1.45-1.7,2.47-3.2,2.47h-14c-1.2,0-2.18,0.98-2.18,2.18V606.17z"/>
			</g>
			<path class="st3" d="M629.07,589.2h-21.86c-2.64,0-4.78-2.14-4.78-4.78v0c0-2.64,2.14-4.78,4.78-4.78h21.86
				c2.64,0,4.78,2.14,4.78,4.78l0,0C633.84,587.06,631.71,589.2,629.07,589.2z"/>
			<path class="st6" d="M616.44,627.3L616.44,627.3c-1.72,0-3.11-1.39-3.11-3.11v-18.87c0-1.72,1.39-3.11,3.11-3.11l0,0
				c1.72,0,3.11,1.39,3.11,3.11v18.87C619.55,625.91,618.16,627.3,616.44,627.3z"/>
		</g>
		<g>
			<path class="st5" d="M735.57,668.21c0,0,2.14,6.6,1.96,8.1c-0.18,1.51-1.53,6.66-2.49,7.98c-0.96,1.32-1.43-5.37-2.19-6.38
				c-0.76-1.01-0.16,2.52-0.69,2.85c-0.54,0.33-1.65-2.59-2.13-3.63c-0.48-1.03,1.17-4.83,1.18-7.48
				C731.21,667.01,735.57,668.21,735.57,668.21z"/>
			<path class="st4" d="M685.2,615.82c-0.59-7.56,7.62-12.75,14.11-8.82c0.13,0.08,0.27,0.16,0.4,0.25
				c9.71,6.25,30.67,35.42,32.11,38.35c1.44,2.92,5.7,26.17,5.7,26.17s-5.26,1.92-7.72-0.07c0,0-8.53-22.05-9.79-23.15
				c-1.26-1.1-34.13-19.54-34.41-26.46C685.53,620.26,685.38,618.06,685.2,615.82z"/>
		</g>
		<g>
			<path class="st12" d="M743.85,786.57c0,0,3.92,3.57,3.15,6.11c-0.76,2.54-4.3,4.23-4.78,7.34c-0.48,3.1-2.39,4.8-4.11,4.8
				c-1.72,0-8.2,0-8.2,0s-1.27-2.18,1.79-2.84c3.06-0.66,4.21-4.31,4.02-7.69c-0.19-3.39,0.29-7.9,0.29-7.9l6.49-1.51L743.85,786.57
				z"/>
			<path class="st12" d="M695.81,795.81c0,0,0.7,8.13-1.02,8.98l-22-0.04c0,0,0-2.54,3.53-3.1c3.53-0.56,9.74-2.63,10.79-7.24
				C688.16,789.79,695.81,795.81,695.81,795.81z"/>
			<path class="st3" d="M677.23,680.92c0,0,1.16,14.26,2.52,31.4c1.85,23.28,4.08,51.88,4.3,57.29c0.38,9.41,1.91,24.45,1.91,24.45
				s3.63,3.57,10.89,2.07c0,0,6.47-21.48,8.32-44.21c0.03-0.37,0.06-0.75,0.09-1.12c1.72-23.14,4.39-71.86,4.39-71.86L677.23,680.92
				z"/>
			<path class="st7" d="M677.23,680.92c0,0,1.16,14.26,2.52,31.4l25.42,39.61c0.03-0.37,0.06-0.75,0.09-1.12
				c1.72-23.14,4.39-71.86,4.39-71.86L677.23,680.92z"/>
			<path class="st3" d="M682.53,682.61c0,0,20.92,51.63,34.67,75.9c13.75,24.27,18.05,31.04,18.05,31.04s7.88-3.1,8.6-5.22
				c0,0-5.26-46.84-14.47-58.26c-5.2-6.45-11.32-25.82-11.61-32.59c-0.29-6.77-1.86-20.17-1.86-20.17L682.53,682.61z"/>
		</g>
		<path class="st5" d="M700.57,605.16c0,0-14.02,7.11-22.22,4.74c0,0,1.96-2.57,5.43-4.53c-0.31-1.63-0.56-3.05-0.71-4.25
			c-0.4-2.77-0.43-4.35-0.43-4.35l5.37-4.4l5.1-4.21C692.92,599.72,700.57,605.16,700.57,605.16z"/>
		<path class="st6" d="M714.49,677.39c-5.66,3.42-11.02,6-17.29,7.45c-7.39,1.75-16.48,1.24-19.52,1.7
			c-0.31,0.04-0.61-0.04-0.89-0.22c-0.24-0.12-1.58-9.14-2.92-20.53c-0.06-0.46-0.12-0.92-0.15-1.38l-0.02-0.15
			c-0.52-4.45-0.98-9.13-1.38-13.81c-0.32-3.65-0.59-7.25-0.78-10.64c-0.23-4.24-0.33-8.13-0.23-11.33
			c0.04-1.46,0.13-2.78,0.26-3.92c0.8-6.65,3.97-11.4,6.96-14.94l2.48-2.82c2.87,0.18,5.81-0.36,8.57-2.19
			c3.03-1.99,6.29-4.14,6.91-3.78c4.64,2.54,8.41,9.11,11.11,17.8c1.55,5,2.73,10.67,3.49,16.68c0.24,1.86,0.45,3.78,0.61,5.68
			c0.03,0.35,0.06,0.7,0.09,1.05c0.36,5.21,0.96,10.09,1.62,14.44c0.89,5.88,1.9,10.8,2.61,14.27c0.36,1.76,0.63,3.13,0.79,4.11
			C716.96,675.69,715.25,676.91,714.49,677.39z"/>
		<path class="st8" d="M693.29,592.57c0,0-3.45,6.59-10.22,8.55c-0.4-2.77-0.43-4.35-0.43-4.35l5.37-4.4L693.29,592.57z"/>
		<path class="st5" d="M680.14,596.63c0,0,13.54,1.94,14.65-6.38c1.1-8.32,3.59-13.68-5.01-15.27c-8.6-1.59-10.7,1.37-11.76,4.06
			C676.97,581.73,676.65,595.91,680.14,596.63z"/>
		<path class="st4" d="M699.37,573.79c0.12-0.14,0.4-0.26,1.03-0.31c0,0-0.51-0.3-1.18-0.31c-0.15-0.87-0.65-2.41-2.16-2.76
			c0,0,0.82,0.42,0.94,1.34c-1.78-1.76-5.54-2.99-15.87-1.96c-13.61,1.35-8.95,9.99-7.16,10.99c1.79,1.01,6.17-1.94,9.47-1.74
			c3.29,0.2,4.01,4.94,5.14,5.57c1.13,0.63,0.67-0.51,2.16-1.23c1.5-0.71,1.69,1.79,1.29,3.42c-0.4,1.64,1.71,3.74,1.71,3.74
			s0,0,2.05-2.3c2.05-2.3,3.84-11.9,2.84-13.92C699.54,574.15,699.46,573.97,699.37,573.79z"/>
		<path class="st4" d="M695.07,629.2c0,0-11.42,8.69-23.52,10.59c-0.23-4.24-0.33-8.13-0.23-11.33L695.07,629.2z"/>
		<g>
			<path class="st5" d="M624.94,617.99c-0.18-0.19-2.51-7.98-6.53-7.41c-2.63,0.37-6.92,1.89-5.78,5.35
				c0.45,1.36,8.45,6.05,8.45,6.05L624.94,617.99z"/>
			<path class="st6" d="M696.48,612.41c6.51,3.9,5.98,13.6-0.98,16.61c-0.14,0.06-0.29,0.12-0.43,0.18
				c-10.72,4.3-46.64,4.5-49.86,3.98c-3.22-0.52-24.64-10.5-24.64-10.5s1.48-5.4,4.53-6.25c0,0,22.92,5.81,24.55,5.42
				c1.63-0.39,35.69-16.51,41.49-12.74C692.67,610.1,694.55,611.25,696.48,612.41z"/>
		</g>
	</g>
	<g>
		<path class="st13" d="M938.12,356.86h-28.59c-1.2,0-2.19-0.98-2.19-2.19l0,0c0-1.2,0.98-2.18,2.19-2.18h28.59
			c1.2,0,2.19,0.98,2.19,2.18l0,0C940.3,355.88,939.32,356.86,938.12,356.86z"/>
		<path class="st13" d="M938.12,365.4h-28.59c-1.2,0-2.19-0.98-2.19-2.19l0,0c0-1.2,0.98-2.19,2.19-2.19h28.59
			c1.2,0,2.19,0.98,2.19,2.19l0,0C940.3,364.42,939.32,365.4,938.12,365.4z"/>
		<path class="st13" d="M938.12,374.16h-28.59c-1.2,0-2.19-0.98-2.19-2.19l0,0c0-1.2,0.98-2.18,2.19-2.18h28.59
			c1.2,0,2.19,0.98,2.19,2.18l0,0C940.3,373.17,939.32,374.16,938.12,374.16z"/>
	</g>
	<path class="st13" d="M826.15,580.32h-68.07c-1.59,0-2.9-1.3-2.9-2.9l0,0c0-1.59,1.3-2.9,2.9-2.9h68.07c1.59,0,2.9,1.3,2.9,2.9l0,0
		C829.05,579.02,827.74,580.32,826.15,580.32z"/>
	<path class="st13" d="M493.41,381.44h-68.07c-1.59,0-2.9-1.3-2.9-2.9l0,0c0-1.59,1.3-2.9,2.9-2.9h68.07c1.59,0,2.9,1.3,2.9,2.9l0,0
		C496.3,380.14,495,381.44,493.41,381.44z"/>
	<path class="st13" d="M826.15,609.07h-68.07c-1.59,0-2.9-1.3-2.9-2.9l0,0c0-1.59,1.3-2.9,2.9-2.9h68.07c1.59,0,2.9,1.3,2.9,2.9l0,0
		C829.05,607.76,827.74,609.07,826.15,609.07z"/>
	<path class="st13" d="M826.15,594.69h-81.41c-1.59,0-2.9-1.3-2.9-2.9l0,0c0-1.59,1.3-2.9,2.9-2.9h81.41c1.59,0,2.9,1.3,2.9,2.9l0,0
		C829.05,593.39,827.74,594.69,826.15,594.69z"/>
	<g>
		<path class="st13" d="M472.51,399.66h-37.03c-1.59,0-2.9-1.3-2.9-2.9v0c0-1.59,1.3-2.9,2.9-2.9h37.03c1.59,0,2.9,1.3,2.9,2.9v0
			C475.41,398.36,474.1,399.66,472.51,399.66z"/>
		<path class="st13" d="M419.87,396.76c0-1.6,1.3-2.9,2.9-2.9c1.6,0,2.9,1.3,2.9,2.9c0,1.6-1.3,2.9-2.9,2.9
			C421.16,399.66,419.87,398.37,419.87,396.76z"/>
	</g>
	<g>
		<path class="st13" d="M479.99,411.19h-44.5c-1.59,0-2.9-1.3-2.9-2.9v0c0-1.59,1.3-2.9,2.9-2.9h44.5c1.59,0,2.9,1.3,2.9,2.9l0,0
			C482.88,409.89,481.58,411.19,479.99,411.19z"/>
		<path class="st13" d="M419.87,408.3c0-1.6,1.3-2.9,2.9-2.9c1.6,0,2.9,1.3,2.9,2.9c0,1.6-1.3,2.9-2.9,2.9
			C421.16,411.19,419.87,409.9,419.87,408.3z"/>
	</g>
	<g>
		<path class="st13" d="M472.51,423.71h-37.03c-1.59,0-2.9-1.3-2.9-2.9l0,0c0-1.59,1.3-2.9,2.9-2.9h37.03c1.59,0,2.9,1.3,2.9,2.9v0
			C475.41,422.41,474.1,423.71,472.51,423.71z"/>
		<path class="st13" d="M419.87,420.81c0-1.6,1.3-2.9,2.9-2.9c1.6,0,2.9,1.3,2.9,2.9c0,1.6-1.3,2.9-2.9,2.9
			C421.16,423.71,419.87,422.41,419.87,420.81z"/>
	</g>
	<g>
		<g>
			<path class="st4" d="M543.07,406.15c-0.5,0.07-1.01,0.1-1.53,0.1c-2.73-0.03-5.28-1.12-7.19-3.08
				c-3.94-4.03-3.86-10.52,0.17-14.46v0c4.03-3.94,10.52-3.86,14.46,0.17c3.94,4.03,3.86,10.52-0.17,14.46
				C547.22,404.88,545.22,405.86,543.07,406.15z M535.69,389.92c-3.37,3.29-3.43,8.71-0.14,12.07c1.59,1.63,3.73,2.54,6.01,2.57
				c2.28,0.03,4.43-0.84,6.07-2.43c3.37-3.29,3.43-8.71,0.14-12.08C544.47,386.69,539.06,386.63,535.69,389.92L535.69,389.92z"/>
		</g>
		
			<rect x="529.12" y="400.48" transform="matrix(0.6989 0.7152 -0.7152 0.6989 450.995 -256.351)" class="st4" width="1.68" height="13.95"/>
		<path class="st4" d="M521.5,415.72L521.5,415.72c-0.58-0.59-0.57-1.55,0.02-2.13l5.88-5.74c0.59-0.58,1.55-0.57,2.13,0.02l0,0
			c0.58,0.59,0.57,1.55-0.02,2.13l-5.88,5.74C523.03,416.32,522.08,416.31,521.5,415.72z"/>
	</g>
	<g>
		<path class="st4" d="M1019.65,805L1019.65,805c-1.3,0.01-2.67-0.93-3.06-2.11l-78.54-239.15c-0.38-1.17,0.36-2.12,1.66-2.13l0,0
			c1.3-0.01,2.67,0.93,3.06,2.1l78.54,239.15C1021.7,804.04,1020.95,805,1019.65,805z"/>
		<path class="st4" d="M1082.95,804.64L1082.95,804.64c-1.3,0.01-2.67-0.93-3.06-2.1l-78.54-239.15c-0.38-1.17,0.36-2.12,1.66-2.13
			l0,0c1.3-0.01,2.67,0.93,3.06,2.11l78.54,239.15C1085,803.68,1084.25,804.63,1082.95,804.64z"/>
		<path class="st4" d="M1014.79,596.71l-63.57,0.37c-1.23,0.01-2.52-0.89-2.89-1.99l0,0c-0.36-1.1,0.35-2.01,1.57-2.01l63.57-0.37
			c1.23-0.01,2.52,0.89,2.89,1.99l0,0C1016.72,595.8,1016.02,596.7,1014.79,596.71z"/>
		<path class="st4" d="M1028.51,638.46l-63.57,0.37c-1.23,0.01-2.52-0.89-2.89-1.99l0,0c-0.36-1.1,0.35-2.01,1.57-2.01l63.57-0.37
			c1.23-0.01,2.52,0.89,2.89,1.99l0,0C1030.44,637.55,1029.73,638.46,1028.51,638.46z"/>
		<path class="st4" d="M1041.71,678.68l-63.57,0.37c-1.23,0.01-2.52-0.89-2.89-1.99l0,0c-0.36-1.1,0.35-2.01,1.57-2.01l63.57-0.37
			c1.23-0.01,2.52,0.89,2.89,1.99l0,0C1043.65,677.76,1042.94,678.67,1041.71,678.68z"/>
		<path class="st4" d="M1056.58,723.95l-63.57,0.37c-1.23,0.01-2.52-0.89-2.89-1.99l0,0c-0.36-1.1,0.35-2.01,1.57-2.01l63.57-0.37
			c1.23-0.01,2.52,0.89,2.89,1.99l0,0C1058.51,723.04,1057.81,723.94,1056.58,723.95z"/>
		<path class="st4" d="M1072.14,771.33l-63.57,0.37c-1.23,0.01-2.52-0.89-2.89-1.99l0,0c-0.36-1.1,0.35-2.01,1.57-2.01l63.57-0.37
			c1.23-0.01,2.52,0.89,2.89,1.99l0,0C1074.08,770.42,1073.37,771.33,1072.14,771.33z"/>
	</g>
	<g>
		<path class="st4" d="M935.31,454.22L935.31,454.22c-0.5,0.1-0.98-0.23-1.08-0.73l-1.02-5.25c-0.1-0.5,0.23-0.98,0.73-1.08l0,0
			c0.5-0.1,0.98,0.23,1.08,0.73l1.02,5.26C936.13,453.64,935.8,454.12,935.31,454.22z"/>
		
			<rect x="932.64" y="438.22" transform="matrix(0.9818 -0.19 0.19 0.9818 -67.0018 185.3132)" class="st4" width="0.63" height="7.74"/>
		<path class="st5" d="M932.54,395.48c0,0-0.6-5.23-1.87-7.23c-1.27-2-6.06-3.28-6.36-2.99c-0.94,0.91,2.77,4.12,2.92,5.31
			c0.15,1.18-1.88,0.37-0.91,2.67c0.82,1.95,3.53,4.48,3.53,4.48L932.54,395.48z"/>
		<path class="st7" d="M930.23,394.9c1.75-1.37,2.12-1.35,2.12-1.35s16.16,14,17.74,15.25c1.57,1.25,25.85,8.29,25.85,8.29
			l3.86,19.73c0,0-32.85-15.87-36.77-19.1c-6.49-5.35-14.67-20.32-14.67-20.32S928.85,395.98,930.23,394.9z"/>
		<path class="st4" d="M976.45,584.56c0,0-0.28,6.75-1.57,8.38l-18.02,0.1c0.13-0.7,0.2-2.3,2.69-2.74c3.15-0.55,6.85-2.74,8.75-6.9
			C970.31,579.03,976.45,584.56,976.45,584.56z"/>
		<path class="st4" d="M1011.81,583.59c0,0,1.26,8.96-0.45,9.12c-0.23,0.02-7.26,0.13-10.31,0.18c-3.58,0.06-9.47-0.07-9.47-0.07
			c-0.74,0.03-1.23-0.77-0.85-1.41c0.41-0.7,1.2-1.45,2.71-1.74c3.14-0.6,8.37-2.91,10.2-7.1
			C1005.57,578.17,1011.81,583.59,1011.81,583.59z"/>
		<path class="st4" d="M967.08,491.77c0,0,5.01,17.53,19.37,47.97c14.36,30.44,14.98,45.11,14.98,45.11s2.17,0.77,5.06,0.46
			c3.12-0.33,5.32-1.72,5.32-1.72s-0.93-36.23-7.71-51.6c-6.78-15.36-8.16-57.4-8.16-57.4L967.08,491.77z"/>
		<path class="st6" d="M959.04,476.69c0,0-0.4,27.14,4.3,60.47c4.7,33.33,2.5,48.83,2.5,48.83s1.24,0.91,5.07,0.89
			c4.48-0.02,6.78-1.87,6.78-1.87s6.72-33.34,4.79-50.02s9.21-57.24,9.21-57.24L959.04,476.69z"/>
		<path class="st5" d="M981.24,413.16l-5.31,3.93l-7.67-1.61c0.11-0.7,0.61-3.6,1.07-6.22c0.03-0.15,0.06-0.31,0.08-0.46
			c0.39-2.23,0.74-4.15,0.74-4.15l7.16-3.57l2.67-1.33c-0.01,0.05-0.21,2.48-0.23,2.83C979.25,408.88,981.24,413.16,981.24,413.16z"
			/>
		<path class="st3" d="M996.43,480.04c-1.73,7.93-38.86,4.45-38.38-0.39c0.02-0.16,0.12-2.4,0.25-5.42
			c0.28-6.54,0.71-16.75,0.77-17.55c0-0.01,0-0.03,0-0.04c0.67-6.74,1.31-13.34,1.35-17.65c0.04-3.74,0.55-7.56,1.24-11.02
			c0.63-3.2,1.41-6.11,2.08-8.37c0.47-1.6,1.36-3,2.53-4.1c0.83-0.78,1.81-1.42,2.89-1.84c0.3-0.12,0.59-0.23,0.9-0.31
			c4.37-1.27,10.42-2.84,12.05-2.36c4.44,1.31,7.74,9.12,10.07,19.08C996.56,448.69,997.57,474.87,996.43,480.04z"/>
		<path class="st8" d="M979.21,402.69c-1.57,3.01-7.43,5.61-9.88,6.57c0.03-0.15,0.06-0.31,0.08-0.46c0.39-2.23,0.74-4.15,0.74-4.15
			l7.16-3.57C978.9,401.05,979.86,401.45,979.21,402.69z"/>
		<path class="st5" d="M966.68,404.22c0,0,12.92,4.03,15.31-4.05c2.39-8.08,5.66-13.01-2.49-15.92c-8.15-2.92-10.67-0.31-12.12,2.2
			C965.92,388.95,963.38,402.97,966.68,404.22z"/>
		<path class="st4" d="M967.88,385.67c0,0,0.82,9.41,2.77,9c1.95-0.41,3.71-0.71,3.43,2.12c-0.28,2.84-2.98,6.11,3.01,6.61
			c6,0.5,14.62-14.96,12.97-17.89C985.3,377.07,961.01,375.36,967.88,385.67z"/>
		<path class="st7" d="M958.31,474.22c0.28-6.54,0.71-16.75,0.77-17.55c0-0.01,0-0.03,0-0.04l21.93-13.11
			C981.01,443.52,981.86,474.13,958.31,474.22z"/>
		<path class="st5" d="M940.87,446.78c0,0-4.46-3.02-5.3-3.28c-0.85-0.26-3.62-0.55-3.75-0.33c-0.13,0.22-0.51,0.89-0.02,1.11
			c0.48,0.23,1.09,0.15,0.91,0.31c-0.18,0.16-2-0.71-2.42,0.22c-0.42,0.93-0.79,4.11,1.35,5.08c2.14,0.97,7.42,0.09,7.8,0.2
			C942.65,451.03,940.87,446.78,940.87,446.78z"/>
		<path class="st3" d="M940.83,445.96c0,0,21.76,3.7,23.68,2.76c3.08-1.5-1.19-23.57-1.19-23.57s-0.18-5,5.66-6.18
			c5.08-1.03,9.98,2.78,9.98,2.78s4.46,3.99,3.89,8.41c-1.26,9.8-3.23,29.74-9.78,32.79c-8.46,3.94-32.92-10.93-32.92-10.93
			s-0.81-1-0.7-2.85C939.54,447.54,940.83,445.96,940.83,445.96z"/>
		<path class="st5" d="M926.21,392.98c0,0-1.39-2.77-1.62-3.29c-0.22-0.52,0.32-0.41,0.86-0.12c0.54,0.29,1.27,1.9,2.09,1.7
			C928.2,391.12,926.21,392.98,926.21,392.98z"/>
	</g>
</g>
</svg>
