<?xml version="1.0" encoding="utf-8"?>
<!-- Generator: Adobe Illustrator 23.0.3, SVG Export Plug-In . SVG Version: 6.00 Build 0)  -->
<svg version="1.1" id="Layer_1" xmlns="http://www.w3.org/2000/svg" xmlns:xlink="http://www.w3.org/1999/xlink" x="0px" y="0px"
	 viewBox="0 0 841.89 595.28" style="enable-background:new 0 0 841.89 595.28;" xml:space="preserve">
<style type="text/css">
	.st0{fill:#FFFFFF;stroke:#FFFFFF;stroke-miterlimit:10;}
</style>
<path class="st0" d="M420.95,506.72c-170.64,0-310.47-131.87-323.17-299.25c-0.62,8.2-0.94,16.49-0.94,24.86
	c0,179,145.11,324.11,324.11,324.11s324.11-145.11,324.11-324.11c0-8.36-0.32-16.65-0.94-24.86
	C731.42,374.85,591.58,506.72,420.95,506.72z"/>
<path class="st0" d="M661.74,259.88L567.44,96.54c-2.17-3.76-4.75-7.14-7.65-10.13c-4.08-5.5-9.31-10.27-15.62-13.92h0
	C519.52,58.26,488,66.7,473.76,91.36l-51.27,88.8l-51.27-88.8c-14.23-24.65-45.76-33.1-70.41-18.87h0
	c-6.9,3.98-12.52,9.32-16.74,15.47c-2.44,2.68-4.64,5.66-6.53,8.93l-94.31,163.34c-14.23,24.65-5.79,56.18,18.87,70.41l0,0
	c24.65,14.23,56.18,5.79,70.41-18.87l53.47-92.61l50.27,87.07c9.82,17.02,27.88,26.31,46.24,25.75
	c18.35,0.55,36.41-8.74,46.24-25.75L519.1,219l53.36,92.43c14.23,24.65,45.76,33.1,70.41,18.87l0,0
	C667.53,316.05,675.98,284.53,661.74,259.88z"/>
</svg>
